<?xml version="1.0" encoding="UTF-8"?>
<svg version="1.1" xmlns="http://www.w3.org/2000/svg" width="1024" height="271">
<path d="M0 0 C1.26963844 -0.00569504 1.26963844 -0.00569504 2.56492615 -0.01150513 C5.36389272 -0.01891206 8.16181876 0.00249989 10.96069336 0.02490234 C12.92345559 0.02729012 14.88622014 0.02819139 16.84898376 0.02767944 C20.97238404 0.03080937 25.09543717 0.04736957 29.21875 0.07421875 C34.44621109 0.10786307 39.67328508 0.11585662 44.90084171 0.11432838 C48.963532 0.11487913 53.02614133 0.12596261 57.08880424 0.14033127 C59.01207302 0.14660438 60.93535081 0.15061534 62.85862923 0.15211868 C79.13784879 0.17873178 95.55938591 0.86981658 111.55053711 4.17333984 C112.35869873 4.33850098 113.16686035 4.50366211 113.99951172 4.67382812 C131.63267549 8.52472931 147.83945236 15.57264216 161.48803711 27.48583984 C162.11452148 28.01693359 162.74100586 28.54802734 163.38647461 29.09521484 C173.66772512 38.49255694 180.7519789 53.04571086 181.64916992 66.99023438 C181.69508002 69.86388649 181.72329871 72.73685201 181.73803711 75.61083984 C181.76897461 77.08423828 181.76897461 77.08423828 181.80053711 78.58740234 C181.88352568 94.35523015 175.71817924 108.93154614 164.87744141 120.28930664 C136.1756581 148.96213237 93.84842853 152.60509518 55.35913086 152.68896484 C54.03074534 152.69320591 54.03074534 152.69320591 52.67552376 152.69753265 C48.0078007 152.71238499 43.34010756 152.72170779 38.67236328 152.72607422 C33.8640343 152.73160327 29.05598216 152.75576293 24.24774075 152.78404617 C20.53055495 152.80265376 16.81343701 152.80787669 13.09620857 152.8094101 C11.3224031 152.81243085 9.54859866 152.82043985 7.7748394 152.83359528 C5.30328648 152.85065022 2.83242771 152.84877953 0.36083984 152.84228516 C-0.72934448 152.85610733 -0.72934448 152.85610733 -1.84155273 152.87020874 C-6.64767668 152.83064922 -10.05483821 151.94296453 -13.51196289 148.48583984 C-13.61938943 146.63486649 -13.65607756 144.77976727 -13.66586304 142.92570496 C-13.6744635 141.71847275 -13.68306396 140.51124054 -13.69192505 139.26742554 C-13.69636066 137.91729779 -13.70065899 136.56716959 -13.70483398 135.21704102 C-13.71273174 133.80468034 -13.72100048 132.3923217 -13.72961426 130.97996521 C-13.75587313 126.32959938 -13.77114612 121.67922437 -13.78540039 117.02880859 C-13.79075856 115.43004157 -13.79613606 113.8312746 -13.80153275 112.23250771 C-13.82316751 105.58339691 -13.84190519 98.93428859 -13.85315514 92.28515148 C-13.86939979 82.74551725 -13.90258281 73.20629002 -13.95955598 63.66680926 C-13.99821943 56.96529572 -14.01778356 50.2638912 -14.0230757 43.56226903 C-14.02673429 39.55679721 -14.0388082 35.55175909 -14.07117844 31.5464077 C-14.10119626 27.77799897 -14.10759399 24.01028774 -14.09579468 20.24178505 C-14.09557341 18.85825123 -14.10392306 17.47468565 -14.12144852 16.09126282 C-14.1440647 14.20328582 -14.13288388 12.31499391 -14.1199646 10.42692566 C-14.12492982 8.84154637 -14.12492982 8.84154637 -14.12999535 7.22413921 C-13.51196289 4.48583984 -13.51196289 4.48583984 -11.21667767 2.14542675 C-7.52177274 -0.12173128 -4.20430074 -0.05964912 0 0 Z M46.48803711 39.48583984 C46.48803711 63.90583984 46.48803711 88.32583984 46.48803711 113.48583984 C81.8451342 115.1666195 81.8451342 115.1666195 112.95678711 100.38818359 C119.82295522 91.85802066 122.3323996 82.21237078 121.48803711 71.48583984 C119.65095486 61.30404501 114.54111075 53.15489191 106.18725586 47.05615234 C87.62769266 36.25883772 67.80752845 39.48583984 46.48803711 39.48583984 Z " fill="#FDFDFD" transform="translate(474.511962890625,50.51416015625)"/>
<path d="M0 0 C0.76193161 -0.00983414 1.52386322 -0.01966827 2.30888367 -0.02980042 C3.54157234 -0.01529846 3.54157234 -0.01529846 4.79916382 -0.00050354 C5.67645645 -0.00590652 6.55374908 -0.01130951 7.45762634 -0.01687622 C10.35876241 -0.0293805 13.25890799 -0.01284223 16.16000366 0.00511169 C18.19242403 0.00495655 20.22484469 0.00346505 22.25726318 0.0007019 C26.52608259 -0.00068352 30.79456669 0.01188479 35.06332397 0.03465271 C40.48153272 0.06278484 45.89917383 0.06037115 51.31742287 0.0475626 C55.52334249 0.04052909 59.72913602 0.0484852 63.93503952 0.06081963 C65.92891324 0.06527812 67.92280081 0.06572107 69.91667557 0.06175423 C94.74514618 0.0355197 120.3001559 2.42725768 139.37094116 20.18870544 C148.28610368 29.60552502 152.40949563 41.07011425 152.30844116 53.87620544 C152.30106934 54.99092224 152.30106934 54.99092224 152.29354858 56.12815857 C152.02190137 68.91090117 146.78784065 79.09957482 138.19125366 88.41526794 C129.68133442 96.50120544 129.68133442 96.50120544 124.99594116 96.50120544 C132.24967517 106.22908129 139.61061709 115.87301526 146.99594116 125.50120544 C147.4886853 126.14396423 147.98142944 126.78672302 148.48910522 127.44895935 C153.74306844 134.3909829 153.74306844 134.3909829 159.25765991 141.12229919 C161.59550691 144.32173475 161.29895679 146.63775622 160.99594116 150.50120544 C157.78499648 152.39234009 155.40214611 152.75748852 151.69589233 152.77586365 C150.10855537 152.79016167 150.10855537 152.79016167 148.489151 152.80474854 C147.35057144 152.80383713 146.21199188 152.80292572 145.03890991 152.80198669 C143.86258499 152.80627182 142.68626007 152.81055695 141.47428894 152.81497192 C138.98533776 152.82071494 136.4963698 152.82121571 134.00741577 152.81687927 C130.20837554 152.81372614 126.41011911 152.83715636 122.61117554 152.86253357 C120.19125464 152.8648073 117.77133166 152.86550972 115.35140991 152.86448669 C114.21890305 152.87369644 113.08639618 152.88290619 111.91957092 152.89239502 C105.08016818 152.85249434 99.60940974 152.60539987 94.21517944 147.97142029 C93.58458618 147.162453 93.58458618 147.162453 92.94125366 146.33714294 C92.4543103 145.72193787 91.96736694 145.10673279 91.46566772 144.47288513 C90.98065796 143.82223083 90.49564819 143.17157654 89.99594116 142.50120544 C89.50319702 141.84797302 89.01045288 141.1947406 88.5027771 140.52171326 C86.93507347 138.40617252 85.40147471 136.26876395 83.87094116 134.12620544 C83.30818481 133.35542664 82.74542847 132.58464783 82.1656189 131.79051208 C79.27301585 127.80533687 76.52528609 123.79768178 73.97640991 119.58323669 C73.4847937 118.80319275 72.99317749 118.0231488 72.48666382 117.21946716 C71.56263126 115.74385825 70.67505302 114.24451161 69.83334351 112.72044373 C68.35669184 110.41217196 67.28441259 109.03314847 64.99594116 107.50120544 C60.31246871 106.59145678 55.7583128 106.42979639 50.99594116 106.50120544 C51.01688843 107.7222699 51.03783569 108.94333435 51.05941772 110.20140076 C51.13184275 114.73367069 51.17775005 119.26588952 51.21566772 123.79856873 C51.23577749 125.75991926 51.26306934 127.72120988 51.29769897 129.68235779 C51.34624537 132.50233239 51.36891602 135.32151409 51.38656616 138.14183044 C51.4072113 139.01801025 51.42785645 139.89419006 51.4491272 140.79692078 C51.451373 146.89638259 51.451373 146.89638259 49.0965271 150.02366638 C45.96373246 152.22725461 44.22995292 152.63129592 40.44198608 152.66233826 C39.49727951 152.6719458 38.55257294 152.68155334 37.57923889 152.69145203 C36.55530533 152.6957019 35.53137177 152.69995178 34.47640991 152.70433044 C33.42568802 152.71003052 32.37496613 152.71573059 31.29240417 152.72160339 C29.06558237 152.73106196 26.83874652 152.73759076 24.61190796 152.74143982 C21.20776864 152.75113615 17.80423532 152.78214814 14.40023804 152.81370544 C12.23813225 152.82023631 10.07602214 152.82548645 7.91390991 152.82933044 C6.38711861 152.84785065 6.38711861 152.84785065 4.82948303 152.866745 C-0.78526202 152.84908512 -4.82249702 152.68276726 -9.00405884 148.50120544 C-9.11148537 146.65023209 -9.14817351 144.79513287 -9.15795898 142.94107056 C-9.16655945 141.73383835 -9.17515991 140.52660614 -9.184021 139.28279114 C-9.18845661 137.93266339 -9.19275493 136.58253519 -9.19692993 135.23240662 C-9.20482769 133.82004594 -9.21309643 132.4076873 -9.22171021 130.99533081 C-9.24796907 126.34496498 -9.26324207 121.69458997 -9.27749634 117.04417419 C-9.28285451 115.44540717 -9.28823201 113.8466402 -9.29362869 112.24787331 C-9.31526345 105.59876251 -9.33400114 98.94965419 -9.34525108 92.30051708 C-9.36149574 82.76088285 -9.39467876 73.22165563 -9.45165193 63.68217486 C-9.49031537 56.98066132 -9.5098795 50.2792568 -9.51517165 43.57763463 C-9.51883023 39.57216281 -9.53090415 35.56712469 -9.56327438 31.5617733 C-9.5932922 27.79336457 -9.59968994 24.02565334 -9.58789062 20.25715065 C-9.58766935 18.87361683 -9.59601901 17.49005125 -9.61354446 16.10662842 C-9.63616065 14.21865142 -9.62497983 12.33035951 -9.61206055 10.44229126 C-9.61702577 8.85691197 -9.61702577 8.85691197 -9.62209129 7.23950481 C-9.00405884 4.50120544 -9.00405884 4.50120544 -6.71631241 2.16121292 C-4.1155489 0.56944182 -2.96801499 0.00094613 0 0 Z M50.99594116 37.50120544 C50.99594116 48.06120544 50.99594116 58.62120544 50.99594116 69.50120544 C55.43031616 69.54245544 59.86469116 69.58370544 64.43344116 69.62620544 C65.813302 69.64441345 67.19316284 69.66262146 68.61483765 69.68138123 C81.27820375 69.90192866 81.27820375 69.90192866 92.43344116 64.62620544 C93.0715271 64.13378357 93.70961304 63.64136169 94.36703491 63.13401794 C97.33028463 60.16366212 97.95534792 57.85494652 98.43344116 53.68870544 C98.28120259 48.8797576 96.45107029 45.78149672 92.99594116 42.50120544 C86.53514409 38.1232526 79.98512724 37.36822753 72.28500366 37.40354919 C70.602052 37.40729553 70.602052 37.40729553 68.88510132 37.41111755 C67.47792847 37.42022156 66.07075562 37.42932556 64.62094116 37.43870544 C60.12469116 37.45933044 55.62844116 37.47995544 50.99594116 37.50120544 Z " fill="#F7F7F7" transform="translate(863.0040588378906,50.49879455566406)"/>
<path d="M0 0 C-0.48148053 6.88690743 -1.6153499 13.25608592 -3.5625 19.875 C-3.82643555 20.77774658 -4.09037109 21.68049316 -4.36230469 22.6105957 C-10.77104757 43.90947847 -19.96564045 63.65024113 -34 81 C-34.69480469 81.8971875 -35.38960937 82.794375 -36.10546875 83.71875 C-42.81479148 92.22455805 -50.79308967 102.0413704 -60 108 C-60.66 108 -61.32 108 -62 108 C-62 108.66 -62 109.32 -62 110 C-90.76096282 134.61823391 -129.38877811 144.40342863 -166 149 C-166.74805908 149.09933838 -167.49611816 149.19867676 -168.2668457 149.30102539 C-173.8834052 150.0003995 -179.40691173 150.11953852 -185.0625 150.0625 C-185.92810547 150.05798828 -186.79371094 150.05347656 -187.68554688 150.04882812 C-189.79039539 150.03719913 -191.89520758 150.01927073 -194 150 C-192.40875955 146.36410113 -190.1606096 143.59933476 -187.625 140.5625 C-184.16848989 136.40695814 -184.16848989 136.40695814 -180.8359375 132.15234375 C-179.92714844 131.08693359 -179.92714844 131.08693359 -179 130 C-178.34 130 -177.68 130 -177 130 C-176.63745117 129.15066895 -176.63745117 129.15066895 -176.26757812 128.28417969 C-174.74904183 125.5477726 -172.92848119 123.66930662 -170.71875 121.453125 C-169.87699219 120.60878906 -169.03523438 119.76445312 -168.16796875 118.89453125 C-167.28753906 118.02183594 -166.40710938 117.14914063 -165.5 116.25 C-164.61957031 115.36183594 -163.73914063 114.47367187 -162.83203125 113.55859375 C-161.99027344 112.71941406 -161.14851563 111.88023437 -160.28125 111.015625 C-159.50845703 110.24508789 -158.73566406 109.47455078 -157.93945312 108.68066406 C-156 107 -156 107 -154 107 C-154 106.34 -154 105.68 -154 105 C-152.5390625 103.4921875 -152.5390625 103.4921875 -150.625 101.875 C-149.99851563 101.33617187 -149.37203125 100.79734375 -148.7265625 100.2421875 C-147 99 -147 99 -145 99 C-145 98.34 -145 97.68 -145 97 C-143.12109375 95.2578125 -143.12109375 95.2578125 -140.4375 93.125 C-139.43203125 92.32191406 -138.4265625 91.51882812 -137.390625 90.69140625 C-136.84212891 90.25715332 -136.29363281 89.82290039 -135.72851562 89.37548828 C-133.94911339 87.95950633 -132.18439907 86.52676669 -130.421875 85.08984375 C-122.17107282 78.38579486 -113.71587614 72.08406513 -105 66 C-104.15179688 65.39800781 -103.30359375 64.79601562 -102.4296875 64.17578125 C-84.5669098 51.53034951 -66.01808182 39.82810041 -47 29 C-82.50187299 38.52285534 -114.47858019 61.51995105 -141.00390625 86.34765625 C-143 88 -143 88 -145 88 C-145 88.66 -145 89.32 -145 90 C-145.66 90 -146.32 90 -147 90 C-147 90.66 -147 91.32 -147 92 C-147.66 92 -148.32 92 -149 92 C-149 92.66 -149 93.32 -149 94 C-150.5390625 95.48046875 -150.5390625 95.48046875 -152.625 97.1875 C-156.08787267 100.1100663 -158.97510908 103.15830902 -161.7734375 106.71484375 C-162.17820313 107.13894531 -162.58296875 107.56304687 -163 108 C-163.66 108 -164.32 108 -165 108 C-165.21527344 108.53496094 -165.43054688 109.06992188 -165.65234375 109.62109375 C-167.4925387 112.86943789 -169.99862789 115.3839461 -172.5625 118.0625 C-178.90240802 124.80595166 -184.72924944 131.88070567 -190.484375 139.12890625 C-191.69867188 140.64291016 -191.69867188 140.64291016 -192.9375 142.1875 C-193.66839844 143.10917969 -194.39929688 144.03085938 -195.15234375 144.98046875 C-195.76207031 145.64691406 -196.37179688 146.31335938 -197 147 C-197.66 147 -198.32 147 -199 147 C-206.60769101 120.22092766 -207.59215845 88.51434337 -194.14453125 63.3515625 C-192.22243324 60.12121015 -190.18984908 57.05447583 -188 54 C-187.32195312 53.04609375 -186.64390625 52.0921875 -185.9453125 51.109375 C-161.5480059 19.11583741 -114.58910387 7.55852207 -76.93847656 2.31665039 C-51.51586729 -0.98939025 -25.56759849 -2.4814307 0 0 Z " fill="#F7F7F7" transform="translate(236,52)"/>
<path d="M0 0 C1.12714417 -0.00990463 2.25428833 -0.01980927 3.41558838 -0.03001404 C5.25633942 -0.02326157 5.25633942 -0.02326157 7.13427734 -0.01637268 C8.43395447 -0.02323593 9.73363159 -0.03009918 11.07269287 -0.03717041 C14.630542 -0.05509303 18.18814439 -0.0539354 21.74602509 -0.04822803 C24.71827529 -0.04513532 27.69047817 -0.05122942 30.66272163 -0.05726677 C37.67476473 -0.07130698 44.68668597 -0.06975452 51.69873047 -0.05836487 C58.92942109 -0.04687952 66.15974099 -0.06096717 73.39038277 -0.08776134 C79.60285108 -0.10991939 85.81520303 -0.11655565 92.02770805 -0.11068493 C95.73627478 -0.10731491 99.44460377 -0.10973333 103.15313721 -0.12693596 C107.28771448 -0.14527855 111.42157019 -0.13121711 115.55615234 -0.11402893 C116.7833197 -0.1236969 118.01048706 -0.13336487 119.27484131 -0.14332581 C127.52645202 -0.07133194 127.52645202 -0.07133194 131.6060791 2.21577454 C134.09011423 5.31794159 133.96115853 7.51394956 133.93896484 11.4540863 C133.93900513 12.12938889 133.93904541 12.80469147 133.93908691 13.50045776 C133.9337403 14.92349083 133.91619341 16.34652399 133.88720703 17.76927185 C133.84527554 19.94702786 133.84614476 22.12169702 133.85302734 24.29978943 C133.77355203 34.79045519 133.77355203 34.79045519 132.00341797 37.25852966 C128.1732062 39.86670537 124.18453558 39.52309476 119.75268555 39.50120544 C118.59623032 39.50142448 118.59623032 39.50142448 117.41641235 39.50164795 C114.86791165 39.50095124 112.31948403 39.49317015 109.77099609 39.4853363 C108.00408468 39.48347126 106.23717274 39.48204777 104.47026062 39.48104858 C99.81943332 39.47723017 95.16863723 39.46740564 90.51782227 39.4563446 C85.77213971 39.44611597 81.02645212 39.44154785 76.28076172 39.43650818 C66.96889684 39.42578278 57.65706332 39.40819143 48.34521484 39.38768005 C48.34521484 45.32768005 48.34521484 51.26768005 48.34521484 57.38768005 C51.31279785 57.36411438 51.31279785 57.36411438 54.34033203 57.34007263 C60.87817904 57.29169017 67.41598366 57.25722257 73.95396042 57.23224354 C77.91781365 57.21658997 81.88147312 57.19535762 85.84521484 57.16136169 C89.67072707 57.12875679 93.49605297 57.11082471 97.32169342 57.10304832 C98.78094669 57.09750681 100.2401898 57.0866855 101.69936371 57.07048988 C103.74397284 57.04869973 105.7878129 57.04571366 107.83251953 57.04710388 C108.99612 57.04044205 110.15972046 57.03378021 111.35858154 57.0269165 C114.65852969 57.4255262 116.04778013 58.01205802 118.34521484 60.38768005 C118.86279297 63.6181488 118.86279297 63.6181488 118.87646484 67.57518005 C118.88029175 68.27409363 118.88411865 68.9730072 118.88806152 69.69309998 C118.89078053 71.16910749 118.88341983 72.64516319 118.86669922 74.12107849 C118.84528471 76.38030927 118.86649619 78.63636066 118.89208984 80.89549255 C118.88944656 82.3303954 118.88432156 83.76529628 118.87646484 85.20018005 C118.87195313 86.50600037 118.86744141 87.81182068 118.86279297 89.1572113 C118.34521484 92.38768005 118.34521484 92.38768005 116.71990967 94.06829834 C113.59973524 95.80186892 111.39617071 95.74865881 107.83251953 95.72825623 C107.18819977 95.72869431 106.54388 95.72913239 105.8800354 95.72958374 C103.75874103 95.7275003 101.63824546 95.70419186 99.51708984 95.6806488 C98.04307487 95.67505123 96.5690543 95.67078189 95.09503174 95.66778564 C91.22168478 95.65634946 87.34867709 95.6268932 83.47546387 95.59367371 C79.52063587 95.56294616 75.56575289 95.54927459 71.61083984 95.53416443 C63.85545918 95.50202194 56.10042783 95.44926445 48.34521484 95.38768005 C48.34521484 101.32768005 48.34521484 107.26768005 48.34521484 113.38768005 C50.77276123 113.36673279 53.20030762 113.34578552 55.70141602 113.32420349 C63.72401272 113.2579103 71.74662156 113.21373539 79.76941967 113.18043137 C84.63345522 113.15956089 89.49721001 113.13125306 94.36108398 113.08592224 C99.05544607 113.0424453 103.74953819 113.01853889 108.44408607 113.00817108 C110.23466555 113.00078303 112.02523033 112.9863558 113.81569481 112.96475983 C116.32480108 112.9357008 118.83279341 112.93172502 121.34204102 112.93357849 C122.08147446 112.91919739 122.8209079 112.90481628 123.58274841 112.88999939 C127.18159879 112.91874471 129.21945883 113.30989961 132.30696106 115.2195282 C135.12846627 118.22084816 134.96282146 120.12720428 134.93896484 124.20018005 C134.93900513 124.85091492 134.93904541 125.50164978 134.93908691 126.17210388 C134.93374068 127.54386588 134.91619528 128.91562802 134.88720703 130.28709412 C134.84533889 132.38147509 134.84614002 134.4726385 134.85302734 136.56736755 C134.76311747 148.01406121 134.76311747 148.01406121 131.34521484 151.38768005 C128.2772767 152.4103261 126.18226416 152.51828315 122.96890259 152.52812195 C121.85292191 152.53383209 120.73694122 152.53954224 119.58714294 152.54542542 C118.36213577 152.54654327 117.1371286 152.54766113 115.875 152.54881287 C114.5853685 152.55377777 113.295737 152.55874268 111.96702576 152.56385803 C108.42772488 152.57697406 104.88844296 152.58342531 101.34912157 152.58786869 C99.13776806 152.59080043 96.92641972 152.5949054 94.71506882 152.59937286 C87.79579271 152.61304508 80.87652843 152.62271335 73.95723975 152.62657475 C65.97061378 152.63105637 57.98415889 152.64861009 49.99758494 152.67757535 C43.82339617 152.69919021 37.64925555 152.70927891 31.47502935 152.71061587 C27.78769502 152.71166396 24.10052157 152.71757242 20.41322708 152.73543549 C16.30011862 152.75497411 12.18736846 152.75062802 8.07421875 152.74412537 C6.24278069 152.75794754 6.24278069 152.75794754 4.37434387 152.77204895 C3.25272354 152.7664798 2.13110321 152.76091064 0.97549438 152.75517273 C-0.48292909 152.75737257 -0.48292909 152.75737257 -1.97081566 152.75961685 C-5.45618641 152.27662417 -8.15090754 150.89155767 -10.65478516 148.38768005 C-10.76223935 146.52179143 -10.7989016 144.6518067 -10.8086853 142.78285217 C-10.81728577 141.56576065 -10.82588623 140.34866913 -10.83474731 139.09469604 C-10.8391829 137.73353619 -10.84348123 136.37237589 -10.84765625 135.01121521 C-10.85555391 133.58737994 -10.86382265 132.16354669 -10.87243652 130.73971558 C-10.89869346 126.05207745 -10.91396682 121.36443022 -10.92822266 116.67674255 C-10.93358064 115.06557077 -10.93895815 113.45439904 -10.94435501 111.84322739 C-10.96598826 105.14350217 -10.98472674 98.44377941 -10.9959774 91.74402809 C-11.01222782 82.12882013 -11.04542653 72.51401559 -11.10237825 62.89895976 C-11.1410214 56.14565758 -11.16060332 49.39246357 -11.16589797 42.6390537 C-11.16955895 38.60175734 -11.18165839 34.56489087 -11.2140007 30.52771378 C-11.24398343 26.73058245 -11.25042891 22.93414332 -11.23861694 19.13691902 C-11.23839538 17.74167748 -11.24676849 16.34640474 -11.26427078 14.95127296 C-11.28683064 13.04980748 -11.27572352 11.14803053 -11.26278687 9.24647522 C-11.26609701 8.18125956 -11.26940716 7.11604389 -11.27281761 6.01854897 C-10.65478516 3.38768005 -10.65478516 3.38768005 -8.47020912 1.54573536 C-5.41306853 0.28825587 -3.29539755 0.00819548 0 0 Z " fill="#FAFAFA" transform="translate(693.65478515625,50.61231994628906)"/>
<path d="M0 0 C1.45181923 -0.00956978 1.45181923 -0.00956978 2.93296814 -0.01933289 C4.49864281 -0.02100212 4.49864281 -0.02100212 6.09594727 -0.02270508 C7.16982193 -0.02603348 8.24369659 -0.02936188 9.35011292 -0.03279114 C11.62223889 -0.03785587 13.8943723 -0.0401996 16.16650391 -0.04003906 C19.64506257 -0.04222546 23.12330411 -0.06038593 26.60180664 -0.0793457 C28.80818576 -0.0822797 31.01456639 -0.08426446 33.22094727 -0.08520508 C34.78358559 -0.09598335 34.78358559 -0.09598335 36.37779236 -0.10697937 C37.83433983 -0.10236443 37.83433983 -0.10236443 39.3203125 -0.09765625 C40.17286118 -0.09908127 41.02540985 -0.10050629 41.90379333 -0.10197449 C44.45756883 0.17005239 46.06075423 0.77749516 48.22485352 2.14526367 C49.40356123 4.50267909 49.34812889 5.89568766 49.34510803 8.52383423 C49.3464827 9.44372635 49.34785736 10.36361847 49.34927368 11.31138611 C49.34388077 12.82944603 49.34388077 12.82944603 49.33837891 14.37817383 C49.33852493 15.44160507 49.33867096 16.50503632 49.33882141 17.60069275 C49.3381227 21.12859105 49.33033222 24.65643706 49.32250977 28.18432617 C49.32064544 30.62527436 49.31922161 33.06622293 49.31822205 35.50717163 C49.31439803 41.94174222 49.30456871 48.37629035 49.29351807 54.81085205 C49.28330147 61.37284033 49.27872389 67.93483223 49.27368164 74.49682617 C49.26294636 87.37964827 49.24606266 100.26245478 49.22485352 113.14526367 C50.31622116 113.13416061 51.40758881 113.12305756 52.5320282 113.11161804 C62.81696332 113.01026114 73.10179711 112.93530738 83.38711834 112.88620281 C88.6749573 112.86010879 93.96239309 112.82471387 99.25 112.76806641 C104.3528572 112.71374032 109.45532663 112.68384167 114.5584507 112.67087746 C116.50534991 112.66163869 118.45222789 112.64359734 120.39896202 112.61661339 C123.12614172 112.58031492 125.85171917 112.57531862 128.57910156 112.57763672 C129.38399017 112.55966034 130.18887878 112.54168396 131.01815796 112.52316284 C135.07858836 112.56050787 136.98342736 112.95720297 140.22576904 115.48284912 C142.7299126 118.81790991 142.85634136 120.69492438 142.85375977 124.83666992 C142.85569336 126.1109082 142.85762695 127.38514648 142.85961914 128.69799805 C142.84088745 129.68546021 142.84088745 129.68546021 142.82177734 130.69287109 C142.78737658 132.7064136 142.80114959 134.71558224 142.82055664 136.72924805 C142.74631409 146.50451691 142.74631409 146.50451691 140.31445312 149.49267578 C136.91540364 152.18085968 134.95322536 152.27333867 130.66508484 152.28570557 C129.48316559 152.29141571 128.30124634 152.29712585 127.08351135 152.30300903 C125.780103 152.30412689 124.47669464 152.30524475 123.13378906 152.30639648 C121.7524604 152.3110239 120.37113302 152.31604846 118.98980713 152.32144165 C115.23144573 152.33457593 111.47310221 152.34101272 107.71472144 152.34545231 C105.36718806 152.34838166 103.01965959 152.35248623 100.67212868 152.35695648 C93.32890396 152.37063475 85.98569043 152.38029952 78.64245385 152.38415837 C70.16284771 152.38863868 61.68340279 152.40618383 53.20384568 152.43515897 C46.65176108 152.45677129 40.09972186 152.46686243 33.547602 152.46819949 C29.6333378 152.46924794 25.7192251 152.47516396 21.8049984 152.4930191 C18.12205457 152.5094919 14.43937622 152.51165929 10.75640869 152.5028801 C8.76184664 152.50174194 6.76729344 152.51546585 4.77278137 152.52963257 C3.58240265 152.52406342 2.39202393 152.51849426 1.16557312 152.51275635 C0.13299724 152.51422291 -0.89957865 152.51568947 -1.96344471 152.51720047 C-5.26058762 152.08104867 -7.1364321 151.14974235 -9.77514648 149.14526367 C-10.82212124 146.0043394 -10.90600271 143.8002396 -10.91558838 140.50320435 C-10.92129852 139.32832458 -10.92700867 138.15344482 -10.93289185 136.94296265 C-10.9340097 135.65250031 -10.93512756 134.36203796 -10.9362793 133.0324707 C-10.94090818 131.66084662 -10.94593294 130.28922383 -10.95132446 128.91760254 C-10.96444278 125.1902911 -10.97089219 121.46299767 -10.97533512 117.73566675 C-10.97826647 115.40705657 -10.98237138 113.0784513 -10.98683929 110.7498436 C-11.00051209 103.46428739 -11.01018008 96.17874244 -11.01404119 88.89317429 C-11.018523 80.48262827 -11.03607744 72.07224468 -11.06504178 63.66174805 C-11.08665374 57.16059826 -11.09674519 50.6594942 -11.0980823 44.15830886 C-11.09913059 40.27535818 -11.10504341 36.39256024 -11.12290192 32.50964737 C-11.13937453 28.85705832 -11.1415422 25.20473697 -11.13276291 21.55212402 C-11.13162484 19.57427018 -11.14534807 17.59642525 -11.15951538 15.61862183 C-11.15394623 14.43810242 -11.14837708 13.25758301 -11.14263916 12.04129028 C-11.14410572 11.01738756 -11.14557228 9.99348484 -11.14708328 8.93855476 C-10.70952041 5.65240378 -9.7715594 3.77671047 -7.77514648 1.14526367 C-4.87626208 0.17896887 -3.0154634 0.01349492 0 0 Z " fill="#FBFBFB" transform="translate(292.775146484375,50.854736328125)"/>
<path d="M0 0 C1.02736519 -0.00744736 1.02736519 -0.00744736 2.07548523 -0.01504517 C4.34021003 -0.02964434 6.60486479 -0.03646484 8.86962891 -0.04199219 C10.44520062 -0.04774528 12.02077231 -0.053503 13.59634399 -0.05926514 C16.90000738 -0.06976859 20.20364648 -0.07561561 23.50732422 -0.07910156 C27.73643031 -0.08458639 31.96521446 -0.10861671 36.19421959 -0.13707352 C39.44905531 -0.15571484 42.70381368 -0.16090628 45.95869827 -0.16243744 C47.51759222 -0.16546089 49.07648491 -0.17347909 50.63532639 -0.18662262 C52.81833011 -0.20371569 55.00054989 -0.20179544 57.18359375 -0.1953125 C58.42474945 -0.19895813 59.66590515 -0.20260376 60.94467163 -0.20635986 C65.19460547 0.2703104 67.86576023 1.67677887 70.74072266 4.82519531 C74.16109668 10.01259036 76.92802176 15.43516213 79.59619141 21.03613281 C79.95430908 21.78588379 80.31242676 22.53563477 80.68139648 23.30810547 C81.01163818 24.02015137 81.34187988 24.73219727 81.68212891 25.46582031 C81.97909668 26.10503418 82.27606445 26.74424805 82.58203125 27.40283203 C83.22119141 29.16113281 83.22119141 29.16113281 83.22119141 32.16113281 C76.83082819 33.93286858 70.55374105 34.80497406 63.97119141 35.53613281 C52.90929489 36.8548533 42.07597272 38.65855989 31.22119141 41.16113281 C30.31014648 41.37108887 29.39910156 41.58104492 28.46044922 41.79736328 C4.71498457 47.38668034 -19.18393667 55.56238237 -39.49145508 69.36791992 C-43.6020234 72.16113281 -43.6020234 72.16113281 -45.77880859 72.16113281 C-44.4843492 68.05580386 -42.95805949 64.22977865 -41.08349609 60.35644531 C-40.53999512 59.23036865 -39.99649414 58.10429199 -39.43652344 56.9440918 C-38.84266277 55.72458818 -38.24841434 54.50527332 -37.65380859 53.28613281 C-37.35178528 52.66473419 -37.04976196 52.04333557 -36.73858643 51.40310669 C-34.77657447 47.36643475 -32.80514324 43.33444692 -30.82910156 39.30462646 C-29.75700255 37.11662989 -28.68766968 34.92729663 -27.61865234 32.73779297 C-25.82321271 29.06358932 -24.01773948 25.39446527 -22.20513916 21.72869873 C-21.50762685 20.31549223 -20.81273374 18.90098978 -20.12054443 17.48516846 C-19.14729494 15.49686049 -18.16366298 13.51402804 -17.17724609 11.53222656 C-16.6169873 10.39712646 -16.05672852 9.26202637 -15.47949219 8.0925293 C-11.44246233 1.13407144 -7.79804022 0.04295464 0 0 Z " fill="#F6F6F6" transform="translate(104.77880859375,4.8388671875)"/>
<path d="M0 0 C0.99 0 1.98 0 3 0 C3.32049316 0.70157227 3.64098633 1.40314453 3.97119141 2.12597656 C10.20414807 15.73838352 16.56164044 29.26112854 23.3125 42.625 C31.74851672 59.41558225 31.74851672 59.41558225 35 66.375 C35.34458252 67.0757666 35.68916504 67.7765332 36.04418945 68.49853516 C37.53408479 71.77150009 38.0351654 73.76428194 37.5 77.3515625 C35.62825002 80.65637105 34.58182141 80.91797812 31 82 C27.9022522 82.26069641 27.9022522 82.26069641 24.39306641 82.2746582 C23.07464752 82.28419022 21.75622864 82.29372223 20.39785767 82.30354309 C18.96575901 82.30328162 17.53366033 82.30234436 16.1015625 82.30078125 C14.62332032 82.30467166 13.14507924 82.30900705 11.6668396 82.31376648 C8.57180149 82.32121698 5.47687747 82.32094624 2.38183594 82.31567383 C-1.57129019 82.30988505 -5.52394689 82.32680116 -9.47699547 82.3500185 C-12.52947693 82.36480007 -15.58184654 82.36562148 -18.63435745 82.36250877 C-20.09111077 82.36301991 -21.5478707 82.36821846 -23.00458908 82.37832069 C-37.27545929 82.46513749 -37.27545929 82.46513749 -43 79 C-47.04231879 74.92834653 -49.53142199 70.54781012 -51.9375 65.375 C-52.26556641 64.72015625 -52.59363281 64.0653125 -52.93164062 63.390625 C-55.13696137 58.70491125 -55.13696137 58.70491125 -54.57421875 55.80859375 C-52.34881432 53.2518636 -49.68654886 51.52773053 -46.875 49.6875 C-40.95605996 45.64423092 -35.65146546 41.16569614 -30.4375 36.25 C-29.77153809 35.62440186 -29.10557617 34.99880371 -28.41943359 34.35424805 C-25.477482 31.54187975 -22.70823174 28.72335785 -20.16015625 25.546875 C-19.44730469 24.70640625 -18.73445313 23.8659375 -18 23 C-17.34 23 -16.68 23 -16 23 C-15.77054688 22.47148437 -15.54109375 21.94296875 -15.3046875 21.3984375 C-13.57294167 18.2149287 -11.36475261 15.45897269 -9.125 12.625 C-8.25065349 11.51455399 -7.37824036 10.40258282 -6.5078125 9.2890625 C-6.0840332 8.74797852 -5.66025391 8.20689453 -5.22363281 7.64941406 C-4.00704403 6.0094951 -2.93909241 4.32281101 -1.8671875 2.5859375 C-1.25101563 1.73257813 -0.63484375 0.87921875 0 0 Z " fill="#F8F8F8" transform="translate(228,121)"/>
<path d="M0 0 C3.5955925 2.69235187 6.18421774 4.91202822 7.6171875 9.2109375 C5.84860036 10.97952464 3.38834236 10.42526274 0.9921875 10.4609375 C-2.83023009 10.44735071 -5.81348408 10.34732922 -9.2578125 8.6484375 C-12.91443598 6.9663907 -14.57241369 7.08513785 -18.3828125 8.2109375 C-19.3728125 8.8709375 -20.3628125 9.5309375 -21.3828125 10.2109375 C-21.96623603 13.66862941 -21.96623603 13.66862941 -21.3828125 17.2109375 C-19.92239484 19.32764107 -19.92239484 19.32764107 -17.3828125 20.2109375 C-13.71566401 20.46157482 -13.71566401 20.46157482 -10.3828125 20.2109375 C-11.7028125 19.8809375 -13.0228125 19.5509375 -14.3828125 19.2109375 C-14.42522973 16.87798975 -14.42374187 14.54391183 -14.3828125 12.2109375 C-12.79343694 10.62156194 -11.14381404 11.08112607 -8.9453125 11.078125 C-8.05070312 11.07683594 -7.15609375 11.07554688 -6.234375 11.07421875 C-5.29335937 11.07808594 -4.35234375 11.08195312 -3.3828125 11.0859375 C-1.97128906 11.08013672 -1.97128906 11.08013672 -0.53125 11.07421875 C0.81066406 11.07615234 0.81066406 11.07615234 2.1796875 11.078125 C3.00597656 11.07925293 3.83226562 11.08038086 4.68359375 11.08154297 C6.6171875 11.2109375 6.6171875 11.2109375 7.6171875 12.2109375 C7.71705725 15.05428798 7.75596631 17.86790913 7.7421875 20.7109375 C7.74798828 21.90783203 7.74798828 21.90783203 7.75390625 23.12890625 C7.74379517 29.08432983 7.74379517 29.08432983 6.6171875 30.2109375 C4.99368257 30.28367518 3.36718282 30.29463309 1.7421875 30.2734375 C0.41574219 30.25990234 0.41574219 30.25990234 -0.9375 30.24609375 C-1.74445313 30.23449219 -2.55140625 30.22289062 -3.3828125 30.2109375 C-6.24742071 30.13565869 -6.24742071 30.13565869 -8.51171875 30.53515625 C-16.62939148 31.74694367 -23.39350668 30.39504044 -30.3203125 25.8984375 C-34.56091746 22.54795952 -36.15098254 19.06557717 -36.8203125 13.7109375 C-36.16407108 8.46100618 -33.84985993 5.59868507 -30.0703125 2.0234375 C-21.26676458 -3.91383901 -9.51334445 -5.75700244 0 0 Z " fill="#D8D8D8" transform="translate(260.3828125,7.7890625)"/>
<path d="M0 0 C3.49308219 0.09470877 4.4382236 0.24757513 7.3125 2.4375 C8.09625 3.4275 8.88 4.4175 9.6875 5.4375 C10.9534262 6.87932331 12.22449277 8.31664557 13.5 9.75 C14.56425995 10.97764315 15.62737294 12.20628615 16.6875 13.4375 C16.77837891 12.15552734 16.77837891 12.15552734 16.87109375 10.84765625 C16.95488281 9.74292969 17.03867187 8.63820312 17.125 7.5 C17.20621094 6.39785156 17.28742187 5.29570312 17.37109375 4.16015625 C17.6875 1.4375 17.6875 1.4375 18.6875 0.4375 C20.497785 0.33870435 22.31202727 0.30778486 24.125 0.3125 C25.11371094 0.30992187 26.10242187 0.30734375 27.12109375 0.3046875 C29.6875 0.4375 29.6875 0.4375 31.6875 1.4375 C31.71215504 5.83406173 31.73033842 10.2305872 31.74243164 14.62719727 C31.74747121 16.12394918 31.75430287 17.62069616 31.76293945 19.11743164 C31.77502159 21.26449807 31.78073191 23.41149962 31.78515625 25.55859375 C31.79039307 26.8520874 31.79562988 28.14558105 31.80102539 29.47827148 C31.6875 32.4375 31.6875 32.4375 30.6875 33.4375 C25.88409294 34.06016388 21.97198491 34.39339575 18 31.4375 C17.236875 30.4475 16.47375 29.4575 15.6875 28.4375 C14.42308082 26.99435491 13.15192616 25.5570905 11.875 24.125 C10.81074005 22.89735685 9.74762706 21.66871385 8.6875 20.4375 C8.62691406 21.29214844 8.56632813 22.14679688 8.50390625 23.02734375 C8.42011719 24.13207031 8.33632812 25.23679688 8.25 26.375 C8.16878906 27.47714844 8.08757813 28.57929688 8.00390625 29.71484375 C7.6875 32.4375 7.6875 32.4375 6.6875 33.4375 C4.68950428 33.53623816 2.68792842 33.56721799 0.6875 33.5625 C-0.405625 33.56507813 -1.49875 33.56765625 -2.625 33.5703125 C-5.3125 33.4375 -5.3125 33.4375 -6.3125 32.4375 C-6.53059756 28.18001574 -6.49829161 23.91704276 -6.49780273 19.65454102 C-6.49998743 17.51233 -6.51813512 15.37063529 -6.53710938 13.22851562 C-6.54004359 11.8723976 -6.5420282 10.51627712 -6.54296875 9.16015625 C-6.54707764 7.92015869 -6.55118652 6.68016113 -6.55541992 5.40258789 C-6.17183828 0.72057878 -4.3064767 0.12304219 0 0 Z " fill="#DADADA" transform="translate(7.3125,225.5625)"/>
<path d="M0 0 C4.79216774 0.11306385 7.20388183 2.37175736 10.54296875 5.60546875 C12.94978756 8.17650548 15.20771334 10.78566397 17.375 13.5625 C17.42398438 12.70785156 17.47296875 11.85320313 17.5234375 10.97265625 C17.59820313 9.86792969 17.67296875 8.76320313 17.75 7.625 C17.81960938 6.52285156 17.88921875 5.42070312 17.9609375 4.28515625 C18.09757813 3.38667969 18.23421875 2.48820313 18.375 1.5625 C20.85275095 0.32362452 22.61153707 0.39508331 25.375 0.375 C26.261875 0.36082031 27.14875 0.34664063 28.0625 0.33203125 C30.375 0.5625 30.375 0.5625 32.375 2.5625 C32.61791992 5.52758789 32.61791992 5.52758789 32.60546875 9.28515625 C32.60501053 9.94583603 32.60455231 10.60651581 32.6040802 11.28721619 C32.60105921 12.68343909 32.59317742 14.07965867 32.58081055 15.47583008 C32.56254196 17.62007498 32.56030094 19.76388849 32.56054688 21.90820312 C32.52243212 32.41506788 32.52243212 32.41506788 31.375 33.5625 C27.5429969 34.34942921 24.19494257 34.43676514 20.375 33.5625 C15.81185023 29.91734072 12.59374855 25.39062282 9.375 20.5625 C9.31441406 21.41714844 9.25382813 22.27179687 9.19140625 23.15234375 C9.10761719 24.25707031 9.02382813 25.36179687 8.9375 26.5 C8.85628906 27.60214844 8.77507813 28.70429687 8.69140625 29.83984375 C8.375 32.5625 8.375 32.5625 7.375 33.5625 C5.37700428 33.66123816 3.37542842 33.69221799 1.375 33.6875 C0.281875 33.69007812 -0.81125 33.69265625 -1.9375 33.6953125 C-4.625 33.5625 -4.625 33.5625 -5.625 32.5625 C-5.84309756 28.30501574 -5.81079161 24.04204276 -5.81030273 19.77954102 C-5.81248743 17.63733 -5.83063512 15.49563529 -5.84960938 13.35351562 C-5.85254359 11.9973976 -5.8545282 10.64127712 -5.85546875 9.28515625 C-5.85957764 8.04515869 -5.86368652 6.80516113 -5.86791992 5.52758789 C-5.49915358 1.02641483 -4.39223704 0.68155402 0 0 Z " fill="#DDDDDD" transform="translate(929.625,4.4375)"/>
<path d="M0 0 C3.19066425 0.05535853 4.55026141 0.19836366 7.375 1.8125 C10.61202671 5.21989654 13.72251543 8.71790737 16.75 12.3125 C16.79898437 11.61382812 16.84796875 10.91515625 16.8984375 10.1953125 C16.97320312 9.28523437 17.04796875 8.37515625 17.125 7.4375 C17.19460938 6.53257813 17.26421875 5.62765625 17.3359375 4.6953125 C17.75 2.3125 17.75 2.3125 19.75 0.3125 C22.0625 0.08203125 22.0625 0.08203125 24.75 0.125 C26.0803125 0.13466797 26.0803125 0.13466797 27.4375 0.14453125 C29.75 0.3125 29.75 0.3125 31.75 1.3125 C31.77465504 5.70906173 31.79283842 10.1055872 31.80493164 14.50219727 C31.80997121 15.99894918 31.81680287 17.49569616 31.82543945 18.99243164 C31.83752159 21.13949807 31.84323191 23.28649962 31.84765625 25.43359375 C31.85289307 26.7270874 31.85812988 28.02058105 31.86352539 29.35327148 C31.75 32.3125 31.75 32.3125 30.75 33.3125 C26.46324905 34.03517066 22.39297645 34.40884707 18.671875 31.92578125 C16.88730761 30.13733436 15.30202477 28.30501987 13.75 26.3125 C12.945625 25.343125 12.14125 24.37375 11.3125 23.375 C10.796875 22.694375 10.28125 22.01375 9.75 21.3125 C9.68941406 22.01117187 9.62882812 22.70984375 9.56640625 23.4296875 C9.48261719 24.33976562 9.39882813 25.24984375 9.3125 26.1875 C9.23128906 27.09242187 9.15007812 27.99734375 9.06640625 28.9296875 C8.75 31.3125 8.75 31.3125 7.75 33.3125 C3.46 33.3125 -0.83 33.3125 -5.25 33.3125 C-5.27465392 28.77352295 -5.29283789 24.23458457 -5.30493164 19.69555664 C-5.3099714 18.15030234 -5.3168032 16.60505284 -5.32543945 15.05981445 C-5.33752076 12.84324971 -5.34323173 10.62674782 -5.34765625 8.41015625 C-5.35281754 7.7153566 -5.35797882 7.02055695 -5.36329651 6.30470276 C-5.36349277 4.6402067 -5.31189129 2.97584501 -5.25 1.3125 C-3.69014791 -0.24735209 -2.16093902 0.06797656 0 0 Z " fill="#DEDEDE" transform="translate(454.25,4.6875)"/>
<path d="M0 0 C1.29647461 -0.00386719 1.29647461 -0.00386719 2.61914062 -0.0078125 C3.52470703 -0.00007812 4.43027344 0.00765625 5.36328125 0.015625 C6.24951172 0.00789062 7.13574219 0.00015625 8.04882812 -0.0078125 C14.73006795 0.01196911 20.31869005 0.21598048 25.55078125 4.765625 C28.68702215 8.45532018 29.05444529 10.43765845 28.67578125 15.265625 C27.30078125 18.140625 27.30078125 18.140625 25.67578125 20.265625 C25.01578125 20.265625 24.35578125 20.265625 23.67578125 20.265625 C25.26240202 23.04221134 26.83819186 25.45510404 28.92578125 27.890625 C29.50328125 28.674375 30.08078125 29.458125 30.67578125 30.265625 C30.18078125 31.750625 30.18078125 31.750625 29.67578125 33.265625 C17.29304266 34.4869362 17.29304266 34.4869362 13.41015625 31.5546875 C9.67578125 26.53322209 9.67578125 26.53322209 9.67578125 23.265625 C9.01578125 23.265625 8.35578125 23.265625 7.67578125 23.265625 C7.68738281 23.90371094 7.69898438 24.54179687 7.7109375 25.19921875 C7.71996094 26.02550781 7.72898437 26.85179687 7.73828125 27.703125 C7.74988281 28.52683594 7.76148438 29.35054687 7.7734375 30.19921875 C7.67578125 32.265625 7.67578125 32.265625 6.67578125 33.265625 C4.67778553 33.36436316 2.67620967 33.39534299 0.67578125 33.390625 C-0.41734375 33.39320313 -1.51046875 33.39578125 -2.63671875 33.3984375 C-5.32421875 33.265625 -5.32421875 33.265625 -6.32421875 32.265625 C-6.54231631 28.00814074 -6.51001036 23.74516776 -6.50952148 19.48266602 C-6.51170618 17.340455 -6.52985387 15.19876029 -6.54882812 13.05664062 C-6.55176234 11.7005226 -6.55374695 10.34440212 -6.5546875 8.98828125 C-6.55879639 7.74828369 -6.56290527 6.50828613 -6.56713867 5.23071289 C-6.17708941 0.46975983 -4.33019801 0.01247767 0 0 Z M7.67578125 9.265625 C7.67578125 11.245625 7.67578125 13.225625 7.67578125 15.265625 C10.31578125 14.935625 12.95578125 14.605625 15.67578125 14.265625 C15.67578125 12.945625 15.67578125 11.625625 15.67578125 10.265625 C12.9669879 8.91122832 10.66644857 9.20061049 7.67578125 9.265625 Z " fill="#D8D8D8" transform="translate(636.32421875,225.734375)"/>
<path d="M0 0 C1.29647461 -0.00386719 1.29647461 -0.00386719 2.61914062 -0.0078125 C3.52470703 -0.00007812 4.43027344 0.00765625 5.36328125 0.015625 C6.24951172 0.00789062 7.13574219 0.00015625 8.04882812 -0.0078125 C14.62638512 0.01166213 20.10672727 0.36675901 25.55078125 4.390625 C28.44345849 8.30424715 28.67578125 10.39764107 28.67578125 15.265625 C27.36328125 18.265625 27.36328125 18.265625 25.67578125 20.265625 C25.01578125 20.265625 24.35578125 20.265625 23.67578125 20.265625 C25.26240202 23.04221134 26.83819186 25.45510404 28.92578125 27.890625 C29.50328125 28.674375 30.08078125 29.458125 30.67578125 30.265625 C30.18078125 31.750625 30.18078125 31.750625 29.67578125 33.265625 C17.29304266 34.4869362 17.29304266 34.4869362 13.41015625 31.5546875 C9.67578125 26.53322209 9.67578125 26.53322209 9.67578125 23.265625 C9.01578125 23.265625 8.35578125 23.265625 7.67578125 23.265625 C7.68738281 23.90371094 7.69898437 24.54179687 7.7109375 25.19921875 C7.71996094 26.02550781 7.72898437 26.85179687 7.73828125 27.703125 C7.74988281 28.52683594 7.76148437 29.35054687 7.7734375 30.19921875 C7.67578125 32.265625 7.67578125 32.265625 6.67578125 33.265625 C4.67778553 33.36436316 2.67620967 33.39534299 0.67578125 33.390625 C-0.41734375 33.39320313 -1.51046875 33.39578125 -2.63671875 33.3984375 C-5.32421875 33.265625 -5.32421875 33.265625 -6.32421875 32.265625 C-6.54231631 28.00814074 -6.51001036 23.74516776 -6.50952148 19.48266602 C-6.51170618 17.340455 -6.52985387 15.19876029 -6.54882812 13.05664062 C-6.55176234 11.7005226 -6.55374695 10.34440212 -6.5546875 8.98828125 C-6.55879639 7.74828369 -6.56290527 6.50828613 -6.56713867 5.23071289 C-6.17708941 0.46975983 -4.33019801 0.01247767 0 0 Z M7.67578125 9.265625 C7.67578125 11.245625 7.67578125 13.225625 7.67578125 15.265625 C10.31578125 14.935625 12.95578125 14.605625 15.67578125 14.265625 C15.67578125 12.945625 15.67578125 11.625625 15.67578125 10.265625 C12.9669879 8.91122832 10.66644857 9.20061049 7.67578125 9.265625 Z " fill="#D8D8D8" transform="translate(104.32421875,225.734375)"/>
<path d="M0 0 C0.93005859 -0.020625 1.86011719 -0.04125 2.81835938 -0.0625 C9.91352403 -0.10238849 15.8949279 0.58774941 21.4375 5.4375 C23.38612433 9.09117061 23.74997626 12.24230458 22.9375 16.25 C21.81087436 18.54695658 20.55112194 20.23297258 18.9375 22.25 C19.370625 22.79269531 19.80375 23.33539063 20.25 23.89453125 C20.806875 24.60996094 21.36375 25.32539063 21.9375 26.0625 C22.494375 26.77019531 23.05125 27.47789062 23.625 28.20703125 C24.9375 30.25 24.9375 30.25 24.9375 33.25 C20.15988487 33.78673623 15.69413905 34.0436377 10.9375 33.25 C7.75903695 30.69026445 5.83261459 27.84074343 3.9375 24.25 C3.793125 25.549375 3.64875 26.84875 3.5 28.1875 C3.0625 32.125 3.0625 32.125 1.9375 33.25 C-0.06049572 33.34873816 -2.06207158 33.37971799 -4.0625 33.375 C-5.155625 33.37757813 -6.24875 33.38015625 -7.375 33.3828125 C-10.0625 33.25 -10.0625 33.25 -11.0625 32.25 C-11.1627093 29.97052208 -11.19331303 27.68792865 -11.1953125 25.40625 C-11.19626923 24.72195923 -11.19722595 24.03766846 -11.19821167 23.3326416 C-11.1988933 21.88338123 -11.19704023 20.43411782 -11.19287109 18.98486328 C-11.18752252 16.75937072 -11.1928166 14.53407999 -11.19921875 12.30859375 C-11.19855797 10.90364539 -11.1972768 9.49869715 -11.1953125 8.09375 C-11.19418457 6.80662109 -11.19305664 5.51949219 -11.19189453 4.19335938 C-10.92174786 -1.95171272 -4.95593742 0.02669865 0 0 Z M2.9375 9.25 C2.9375 10.9 2.9375 12.55 2.9375 14.25 C5.2475 14.25 7.5575 14.25 9.9375 14.25 C9.9375 12.93 9.9375 11.61 9.9375 10.25 C7.6275 9.92 5.3175 9.59 2.9375 9.25 Z " fill="#DADADA" transform="translate(253.0625,225.75)"/>
<path d="M0 0 C3.74071649 3.00933404 6.16280359 6.18256821 7.125 10.9375 C7.35347107 15.65314295 5.88068603 19.30417479 3 23 C-2.43582776 27.83592785 -9.04894142 29.93135447 -16.25390625 30.03125 C-22.51855723 29.59544819 -28.95771254 27.83222476 -33.640625 23.47265625 C-37.21947923 19.26647412 -38.31687727 16.56176225 -38.20703125 11.01953125 C-37.73385373 6.40381846 -34.95073396 3.80861082 -31.6875 0.8125 C-22.66377552 -6.47013241 -9.73219803 -5.8600624 0 0 Z M-23 8 C-25.28992684 10.81532057 -25.28992684 10.81532057 -24.9375 14 C-24.25191662 17.10423663 -24.25191662 17.10423663 -21.875 18.875 C-18.27395733 20.28410365 -15.84029626 20.48003703 -12 20 C-9.18034565 18.28368866 -7.51664525 17.00100017 -6 14.0625 C-6 10.85779664 -6.9464534 9.43858659 -9 7 C-14.59743375 4.41656904 -17.70472533 4.98896146 -23 8 Z " fill="#DBDADA" transform="translate(629,9)"/>
<path d="M0 0 C4.20712329 2.71125723 6.27833296 5.28806915 8 10 C8.70535826 14.30096499 8.36571384 17.22285808 6.5 21.1875 C0.96496366 27.41441589 -4.81217594 29.75886315 -13.03515625 30.84765625 C-20.06692985 31.20897268 -25.5140724 29.48848622 -31 25 C-34.10114354 21.89885646 -35.77168728 19.78482498 -37 15.5625 C-37 11.19908267 -36.17165339 8.78288009 -34 5 C-24.60675242 -4.39324758 -11.84968083 -5.92484042 0 0 Z M-22 9 C-23.38142556 10.16377902 -23.38142556 10.16377902 -23.25 13.375 C-23.33729279 16.86020432 -23.33729279 16.86020432 -21.7578125 18.671875 C-18.55995306 21.08803546 -14.90657143 21.09595088 -11 21 C-7.9254644 20.2236068 -7.9254644 20.2236068 -6 18 C-4.75161619 14.59471004 -4.75161619 14.59471004 -5 11 C-7.08023268 7.70629825 -8.62660005 7.10372221 -12.375 6.0625 C-16.48934542 5.99156301 -18.53626582 6.8557836 -22 9 Z " fill="#DBDBDB" transform="translate(804,229)"/>
<path d="M0 0 C3.8792249 2.64492607 6.87947927 6.15348979 8.9765625 10.34765625 C9.44660582 15.14209813 8.99886272 18.58736189 6.3671875 22.7109375 C2.02862516 27.81727913 -4.44008316 30.65785625 -11.0234375 31.34765625 C-18.51802139 31.55720876 -24.81476934 29.54730382 -31.0234375 25.34765625 C-34.39763863 21.64426476 -35.74233394 18.21682799 -36.1171875 13.296875 C-35.89004176 8.5741364 -33.5622927 5.88651145 -30.3359375 2.66015625 C-21.54981171 -3.99925449 -9.87175489 -5.00767203 0 0 Z M-21.0234375 9.34765625 C-23.2642618 12.08506001 -23.2642618 12.08506001 -22.9609375 14.78515625 C-21.67718361 18.29408355 -20.23411843 19.46312614 -17.0234375 21.34765625 C-13.18314124 21.82769328 -10.74948017 21.6317599 -7.1484375 20.22265625 C-4.80972658 18.44707052 -4.80972658 18.44707052 -3.8984375 15.47265625 C-3.73269222 12.17651021 -3.73269222 12.17651021 -6.1484375 9.53515625 C-11.75256204 5.27114844 -14.8861808 6.10533195 -21.0234375 9.34765625 Z " fill="#DCDBDB" transform="translate(895.0234375,7.65234375)"/>
<path d="M0 0 C0.87398438 -0.020625 1.74796875 -0.04125 2.6484375 -0.0625 C9.09585937 -0.10076363 16.04673761 0.35365102 21.18945312 4.66699219 C24.07453694 8.15188106 23.86543509 11.93786597 23.5 16.25 C21.5 19.6875 21.5 19.6875 19.5 22.25 C19.933125 22.79269531 20.36625 23.33539062 20.8125 23.89453125 C21.369375 24.60996094 21.92625 25.32539063 22.5 26.0625 C23.056875 26.77019531 23.61375 27.47789063 24.1875 28.20703125 C25.5 30.25 25.5 30.25 25.5 33.25 C13.12570312 34.31791877 13.12570312 34.31791877 9.234375 31.76171875 C5.5 27.38379854 5.5 27.38379854 5.5 24.25 C4.51 24.25 3.52 24.25 2.5 24.25 C2.5 27.22 2.5 30.19 2.5 33.25 C-1.79 33.25 -6.08 33.25 -10.5 33.25 C-10.52465392 28.71102295 -10.54283789 24.17208457 -10.55493164 19.63305664 C-10.5599714 18.08780234 -10.5668032 16.54255284 -10.57543945 14.99731445 C-10.58752076 12.78074971 -10.59323173 10.56424782 -10.59765625 8.34765625 C-10.60281754 7.6528566 -10.60797882 6.95805695 -10.61329651 6.24220276 C-10.61349277 4.5777067 -10.56189129 2.91334501 -10.5 1.25 C-8.24166036 -1.00833964 -3.02808796 0.01725406 0 0 Z M2.5 9.25 C2.5 11.23 2.5 13.21 2.5 15.25 C7.2897321 15.48428313 7.2897321 15.48428313 11.5 13.25 C11.17 12.26 10.84 11.27 10.5 10.25 C7.86 9.92 5.22 9.59 2.5 9.25 Z " fill="#DEDEDE" transform="translate(299.5,4.75)"/>
<path d="M0 0 C1.48693359 0.00386719 1.48693359 0.00386719 3.00390625 0.0078125 C3.99261719 0.00523437 4.98132813 0.00265625 6 0 C8.56640625 0.1328125 8.56640625 0.1328125 10.56640625 1.1328125 C10.5914624 1.76372803 10.61651855 2.39464355 10.64233398 3.04467773 C10.75794762 5.88678075 10.88082941 8.72852333 11.00390625 11.5703125 C11.04322266 12.56353516 11.08253906 13.55675781 11.12304688 14.58007812 C11.18588867 15.99643555 11.18588867 15.99643555 11.25 17.44140625 C11.28665771 18.31595459 11.32331543 19.19050293 11.36108398 20.09155273 C11.34821691 22.1255527 11.34821691 22.1255527 12.56640625 23.1328125 C15.23699476 23.27396411 17.89072863 23.17528357 20.56640625 23.1328125 C20.5914624 22.471604 20.61651855 21.81039551 20.64233398 21.12915039 C20.75793727 18.15098945 20.88082379 15.1731733 21.00390625 12.1953125 C21.04322266 11.15439453 21.08253906 10.11347656 21.12304688 9.04101562 C21.16494141 8.05166016 21.20683594 7.06230469 21.25 6.04296875 C21.28665771 5.12652588 21.32331543 4.21008301 21.36108398 3.26586914 C21.56640625 1.1328125 21.56640625 1.1328125 22.56640625 0.1328125 C24.39756508 0.03430079 26.23260558 0.00308621 28.06640625 0.0078125 C29.06671875 0.00523437 30.06703125 0.00265625 31.09765625 0 C33.56640625 0.1328125 33.56640625 0.1328125 34.56640625 1.1328125 C34.84693249 4.70824694 34.79825372 8.2976874 34.81640625 11.8828125 C34.83703125 12.88570312 34.85765625 13.88859375 34.87890625 14.921875 C34.91479399 21.68671431 34.26142639 25.35852706 29.44140625 30.3203125 C22.66791389 34.59055768 15.26387708 34.71951432 7.56640625 33.1328125 C2.85215078 31.38679195 0.37419643 29.29250166 -2.43359375 25.1328125 C-3.40627359 22.21477298 -3.56241171 20.31881117 -3.56640625 17.28125 C-3.56833984 15.88132813 -3.56833984 15.88132813 -3.5703125 14.453125 C-3.56451172 12.99519531 -3.56451172 12.99519531 -3.55859375 11.5078125 C-3.56246094 10.528125 -3.56632812 9.5484375 -3.5703125 8.5390625 C-3.56902344 7.60835937 -3.56773438 6.67765625 -3.56640625 5.71875 C-3.56527832 4.8632959 -3.56415039 4.0078418 -3.56298828 3.12646484 C-3.37015453 0.15536978 -2.98527188 0.16292013 0 0 Z " fill="#D8D7D7" transform="translate(52.43359375,225.8671875)"/>
<path d="M0 0 C1.73431274 0.00616333 1.73431274 0.00616333 3.50366211 0.01245117 C4.75598633 0.01438477 6.00831055 0.01631836 7.29858398 0.01831055 C9.26988281 0.03667969 9.26988281 0.03667969 11.28100586 0.05541992 C12.59907227 0.05606445 13.91713867 0.05670898 15.27514648 0.05737305 C25.07841463 0.1028287 25.07841463 0.1028287 26.21850586 1.24291992 C26.35131836 3.05541992 26.35131836 3.05541992 26.34350586 5.24291992 C26.34737305 6.32573242 26.34737305 6.32573242 26.35131836 7.43041992 C26.21850586 9.24291992 26.21850586 9.24291992 25.21850586 10.24291992 C22.52195732 10.31611614 19.85159128 10.33534529 17.15600586 10.30541992 C16.01808594 10.29865234 16.01808594 10.29865234 14.85717773 10.29174805 C12.97758715 10.27992672 11.09803687 10.2619907 9.21850586 10.24291992 C9.21850586 10.90291992 9.21850586 11.56291992 9.21850586 12.24291992 C13.83850586 12.24291992 18.45850586 12.24291992 23.21850586 12.24291992 C23.21850586 15.21291992 23.21850586 18.18291992 23.21850586 21.24291992 C18.59850586 21.24291992 13.97850586 21.24291992 9.21850586 21.24291992 C9.21850586 22.23291992 9.21850586 23.22291992 9.21850586 24.24291992 C11.04188477 24.22551758 11.04188477 24.22551758 12.90209961 24.20776367 C14.4867335 24.19838714 16.07136904 24.18928679 17.65600586 24.18041992 C18.45844727 24.17204102 19.26088867 24.16366211 20.08764648 24.1550293 C22.13145807 24.14640562 24.17534488 24.19063842 26.21850586 24.24291992 C27.21850586 25.24291992 27.21850586 25.24291992 27.34350586 28.74291992 C27.21850586 32.24291992 27.21850586 32.24291992 26.21850586 33.24291992 C23.99995322 33.33075534 21.7786209 33.34986601 19.55834961 33.34057617 C18.56165001 33.33845375 18.56165001 33.33845375 17.54481506 33.33628845 C15.41516687 33.3306751 13.28562246 33.31812046 11.15600586 33.30541992 C9.71525217 33.30040664 8.27449683 33.29584343 6.83374023 33.29174805 C3.29529484 33.28070137 -0.24308953 33.26342784 -3.78149414 33.24291992 C-5.89606836 29.01377148 -4.96735242 23.46392186 -4.96679688 18.81176758 C-4.96898572 16.75084865 -4.98715397 14.69046302 -5.00610352 12.62963867 C-5.00900391 10.69024414 -5.00900391 10.69024414 -5.01196289 8.71166992 C-5.01607178 7.51993164 -5.02018066 6.32819336 -5.02441406 5.1003418 C-4.69324651 1.2048794 -3.9057215 0.34110356 0 0 Z " fill="#D4D4D4" transform="translate(401.781494140625,4.757080078125)"/>
<path d="M0 0 C0.99128906 -0.00257813 1.98257813 -0.00515625 3.00390625 -0.0078125 C5.4375 0.125 5.4375 0.125 6.4375 1.125 C6.58231287 2.67315405 6.66452845 4.22728354 6.71875 5.78125 C6.75613281 6.72097656 6.79351562 7.66070312 6.83203125 8.62890625 C6.90234375 10.62630208 6.97265625 12.62369792 7.04296875 14.62109375 C7.08035156 15.56082031 7.11773437 16.50054687 7.15625 17.46875 C7.18654297 18.33693359 7.21683594 19.20511719 7.24804688 20.09960938 C7.21971501 22.1199413 7.21971501 22.1199413 8.4375 23.125 C11.10808851 23.26615161 13.76182238 23.16747107 16.4375 23.125 C16.46255615 22.4637915 16.4876123 21.80258301 16.51342773 21.12133789 C16.62903102 18.14317695 16.75191754 15.1653608 16.875 12.1875 C16.91431641 11.14658203 16.95363281 10.10566406 16.99414062 9.03320312 C17.03603516 8.04384766 17.07792969 7.05449219 17.12109375 6.03515625 C17.15775146 5.11871338 17.19440918 4.20227051 17.23217773 3.25805664 C17.4375 1.125 17.4375 1.125 18.4375 0.125 C20.26865883 0.02648829 22.10369933 -0.00472629 23.9375 0 C24.9378125 -0.00257813 25.938125 -0.00515625 26.96875 -0.0078125 C29.4375 0.125 29.4375 0.125 30.4375 1.125 C30.71856102 4.86737002 30.66935411 8.62333779 30.6875 12.375 C30.708125 13.42558594 30.72875 14.47617188 30.75 15.55859375 C30.75773437 17.08419922 30.75773437 17.08419922 30.765625 18.640625 C30.77964355 20.03716309 30.77964355 20.03716309 30.79394531 21.46191406 C30.3632211 24.67995494 29.33523207 26.50908695 27.4375 29.125 C21.18377232 33.81529576 14.61670166 34.64451869 6.90625 33.87109375 C2.18951933 32.99849858 -1.28250557 31.79087613 -4.5625 28.125 C-7.41731982 21.92006632 -7.95289384 16.8985328 -7.75 10.125 C-7.73646484 9.25488281 -7.72292969 8.38476562 -7.70898438 7.48828125 C-7.67401678 5.36691373 -7.6202253 3.24587026 -7.5625 1.125 C-4.93920316 -0.18664842 -2.92551375 -0.00762846 0 0 Z " fill="#D8D8D8" transform="translate(200.5625,225.875)"/>
<path d="M0 0 C1.3303125 0.02126953 1.3303125 0.02126953 2.6875 0.04296875 C4.0178125 0.05263672 4.0178125 0.05263672 5.375 0.0625 C7.6875 0.23046875 7.6875 0.23046875 9.6875 1.23046875 C9.71255615 1.86138428 9.7376123 2.4922998 9.76342773 3.14233398 C9.87904137 5.984437 10.00192316 8.82617958 10.125 11.66796875 C10.16431641 12.66119141 10.20363281 13.65441406 10.24414062 14.67773438 C10.30698242 16.0940918 10.30698242 16.0940918 10.37109375 17.5390625 C10.40775146 18.41361084 10.44440918 19.28815918 10.48217773 20.18920898 C10.46931066 22.22320895 10.46931066 22.22320895 11.6875 23.23046875 C14.02047433 23.27139812 16.35455225 23.27288598 18.6875 23.23046875 C19.86219444 20.88107987 19.88784889 19.2797367 20.00390625 16.66015625 C20.04580078 15.76425781 20.08769531 14.86835938 20.13085938 13.9453125 C20.17017578 13.00816406 20.20949219 12.07101563 20.25 11.10546875 C20.29318359 10.16058594 20.33636719 9.21570312 20.38085938 8.2421875 C20.48709072 5.90509783 20.58913176 3.56790045 20.6875 1.23046875 C23.18889602 -0.02022926 24.96142691 0.09744408 27.75 0.10546875 C29.09771484 0.10160156 29.09771484 0.10160156 30.47265625 0.09765625 C32.6875 0.23046875 32.6875 0.23046875 33.6875 1.23046875 C33.9967392 4.95114952 33.96601146 8.68602675 34 12.41796875 C34.02900391 13.46017578 34.05800781 14.50238281 34.08789062 15.57617188 C34.13923704 21.78908777 33.91277373 25.5425738 29.6875 30.23046875 C24.01566979 34.2422511 16.91729515 34.6475826 10.15234375 33.98046875 C5.4382859 33.09904224 1.96752035 31.89637384 -1.3125 28.23046875 C-4.02357258 22.24379032 -4.75943153 17.38346391 -4.625 10.85546875 C-4.62822266 10.04980469 -4.63144531 9.24414062 -4.63476562 8.4140625 C-4.56143727 0.4546027 -4.56143727 0.4546027 0 0 Z " fill="#D9D9D9" transform="translate(713.3125,4.76953125)"/>
<path d="M0 0 C1.50046875 0.00386719 1.50046875 0.00386719 3.03125 0.0078125 C4.0315625 0.00523437 5.031875 0.00265625 6.0625 0 C8.53125 0.1328125 8.53125 0.1328125 9.53125 1.1328125 C9.68839654 2.76538008 9.78210414 4.40416588 9.84765625 6.04296875 C9.91049805 7.52700195 9.91049805 7.52700195 9.97460938 9.04101562 C10.01392578 10.08193359 10.05324219 11.12285156 10.09375 12.1953125 C10.13693359 13.24009766 10.18011719 14.28488281 10.22460938 15.36132812 C10.33106225 17.95168134 10.4330776 20.54213436 10.53125 23.1328125 C14.53379456 23.22462384 14.53379456 23.22462384 18.53125 23.1328125 C20.1448892 21.5191733 19.73469102 19.70653479 19.8125 17.4765625 C19.84988281 16.53683594 19.88726563 15.59710938 19.92578125 14.62890625 C19.96058594 13.64019531 19.99539063 12.65148437 20.03125 11.6328125 C20.09982628 9.6847382 20.17251787 7.73680291 20.25 5.7890625 C20.29543945 4.48678711 20.29543945 4.48678711 20.34179688 3.15820312 C20.53125 1.1328125 20.53125 1.1328125 21.53125 0.1328125 C23.34052281 0.00793492 25.15521107 -0.04289596 26.96875 -0.0546875 C27.95746094 -0.06886719 28.94617188 -0.08304688 29.96484375 -0.09765625 C32.53125 0.1328125 32.53125 0.1328125 34.53125 2.1328125 C34.75977701 4.866233 34.86379117 7.46187149 34.84375 10.1953125 C34.83637817 11.34906372 34.83637817 11.34906372 34.82885742 12.52612305 C34.68648075 19.4339472 34.07785969 25.21170138 29.40625 30.5703125 C22.4320389 34.36064462 15.2298144 34.82847701 7.53125 33.1328125 C3.24129896 31.72948953 0.45319586 30.44927524 -2.17578125 26.6953125 C-3.99222239 21.69049583 -3.82820866 17.09827216 -3.71875 11.8203125 C-3.71359375 10.80646484 -3.7084375 9.79261719 -3.703125 8.74804688 C-3.61145711 0.19428725 -3.61145711 0.19428725 0 0 Z " fill="#DBDBDB" transform="translate(585.46875,225.8671875)"/>
<path d="M0 0 C1.25232422 -0.00128906 2.50464844 -0.00257813 3.79492188 -0.00390625 C5.10912109 -0.00003906 6.42332031 0.00382813 7.77734375 0.0078125 C9.09541016 0.00394531 10.41347656 0.00007812 11.77148438 -0.00390625 C13.02251953 -0.00261719 14.27355469 -0.00132812 15.5625 0 C16.71758057 0.00112793 17.87266113 0.00225586 19.06274414 0.00341797 C21.71484375 0.1328125 21.71484375 0.1328125 22.71484375 1.1328125 C22.84765625 2.9453125 22.84765625 2.9453125 22.83984375 5.1328125 C22.84371094 6.215625 22.84371094 6.215625 22.84765625 7.3203125 C22.71484375 9.1328125 22.71484375 9.1328125 21.71484375 10.1328125 C19.01829521 10.20600871 16.34792917 10.22523787 13.65234375 10.1953125 C12.51442383 10.18854492 12.51442383 10.18854492 11.35351562 10.18164062 C9.47392504 10.1698193 7.59437476 10.15188328 5.71484375 10.1328125 C5.71484375 10.7928125 5.71484375 11.4528125 5.71484375 12.1328125 C10.33484375 12.1328125 14.95484375 12.1328125 19.71484375 12.1328125 C19.71484375 15.1028125 19.71484375 18.0728125 19.71484375 21.1328125 C15.09484375 21.1328125 10.47484375 21.1328125 5.71484375 21.1328125 C5.71484375 22.1228125 5.71484375 23.1128125 5.71484375 24.1328125 C11.32484375 24.1328125 16.93484375 24.1328125 22.71484375 24.1328125 C22.71484375 27.1028125 22.71484375 30.0728125 22.71484375 33.1328125 C18.46069752 33.15746872 14.20658877 33.17565149 9.95239258 33.18774414 C8.50414302 33.19278351 7.05589858 33.19961503 5.60766602 33.20825195 C3.53009787 33.22033497 1.45259678 33.22604461 -0.625 33.23046875 C-1.87659912 33.23570557 -3.12819824 33.24094238 -4.41772461 33.24633789 C-7.28515625 33.1328125 -7.28515625 33.1328125 -8.28515625 32.1328125 C-8.373066 29.84129833 -8.39209663 27.54708726 -8.3828125 25.25390625 C-8.38139755 24.5672438 -8.3799826 23.88058136 -8.37852478 23.17311096 C-8.37291104 20.97213449 -8.36035632 18.77125841 -8.34765625 16.5703125 C-8.34264301 15.08138167 -8.3380798 13.59244926 -8.33398438 12.10351562 C-8.32293718 8.44658175 -8.30566338 4.78970692 -8.28515625 1.1328125 C-5.4791336 -0.27019883 -3.13497258 0.0030583 0 0 Z " fill="#D5D5D5" transform="translate(297.28515625,225.8671875)"/>
<path d="M0 0 C1.30066406 -0.00128906 2.60132813 -0.00257813 3.94140625 -0.00390625 C4.96258545 -0.00076416 4.96258545 -0.00076416 6.00439453 0.00244141 C8.08503515 0.0077901 10.16545989 0.0024957 12.24609375 -0.00390625 C14.19708984 -0.00197266 14.19708984 -0.00197266 16.1875 0 C17.39083984 0.00112793 18.59417969 0.00225586 19.83398438 0.00341797 C22.59375 0.1328125 22.59375 0.1328125 23.59375 1.1328125 C23.7265625 2.9453125 23.7265625 2.9453125 23.71875 5.1328125 C23.72261719 6.215625 23.72261719 6.215625 23.7265625 7.3203125 C23.59375 9.1328125 23.59375 9.1328125 22.59375 10.1328125 C19.89720146 10.20600871 17.22683542 10.22523787 14.53125 10.1953125 C13.39333008 10.18854492 13.39333008 10.18854492 12.23242188 10.18164062 C10.35283129 10.1698193 8.47328101 10.15188328 6.59375 10.1328125 C6.59375 10.7928125 6.59375 11.4528125 6.59375 12.1328125 C7.98400391 12.11541016 7.98400391 12.11541016 9.40234375 12.09765625 C10.59988281 12.08863281 11.79742188 12.07960937 13.03125 12.0703125 C14.22621094 12.05871094 15.42117188 12.04710937 16.65234375 12.03515625 C19.59375 12.1328125 19.59375 12.1328125 20.59375 13.1328125 C20.73490161 15.80340101 20.63622107 18.45713488 20.59375 21.1328125 C15.97375 21.1328125 11.35375 21.1328125 6.59375 21.1328125 C6.59375 22.1228125 6.59375 23.1128125 6.59375 24.1328125 C12.20375 24.1328125 17.81375 24.1328125 23.59375 24.1328125 C23.59375 26.7728125 23.59375 29.4128125 23.59375 32.1328125 C21.73660943 33.98995307 18.66867951 33.26329931 16.1875 33.265625 C14.88683594 33.26691406 13.58617187 33.26820313 12.24609375 33.26953125 C11.56530762 33.26743652 10.88452148 33.2653418 10.18310547 33.26318359 C8.10246485 33.2578349 6.02204011 33.2631293 3.94140625 33.26953125 C1.99041016 33.26759766 1.99041016 33.26759766 0 33.265625 C-1.20333984 33.26449707 -2.40667969 33.26336914 -3.64648438 33.26220703 C-6.40625 33.1328125 -6.40625 33.1328125 -7.40625 32.1328125 C-7.5064593 29.85333458 -7.53706303 27.57074115 -7.5390625 25.2890625 C-7.54001923 24.60477173 -7.54097595 23.92048096 -7.54196167 23.2154541 C-7.5426433 21.76619373 -7.54079023 20.31693032 -7.53662109 18.86767578 C-7.53127252 16.64218322 -7.5365666 14.41689249 -7.54296875 12.19140625 C-7.54230797 10.78645789 -7.5410268 9.38150965 -7.5390625 7.9765625 C-7.53793457 6.68943359 -7.53680664 5.40230469 -7.53564453 4.07617188 C-7.30231922 -1.23131871 -4.72672737 0.00443052 0 0 Z " fill="#EAEAEA" transform="translate(954.40625,225.8671875)"/>
<path d="M0 0 C3.00271531 2.21313374 4.42512096 4.13356257 6.03515625 7.5 C6.03515625 8.49 6.03515625 9.48 6.03515625 10.5 C3.9316213 10.5810206 1.82719673 10.63919907 -0.27734375 10.6875 C-2.03498047 10.73970703 -2.03498047 10.73970703 -3.828125 10.79296875 C-7.30096074 10.46860676 -7.82063966 10.05231544 -9.96484375 7.5 C-14.6616735 6.36928173 -17.64383479 6.27402569 -21.96484375 8.5 C-22.73007176 11.85458155 -22.73007176 11.85458155 -22.96484375 15.5 C-21.46082324 17.64860073 -20.2937939 18.33552492 -17.96484375 19.5 C-15.81548976 19.51519837 -15.81548976 19.51519837 -13.46484375 19.25 C-12.67078125 19.18296875 -11.87671875 19.1159375 -11.05859375 19.046875 C-8.58348537 18.64822839 -8.58348537 18.64822839 -6.96484375 15.5 C-3.92578125 15.20703125 -3.92578125 15.20703125 -0.33984375 15.3125 C0.84867187 15.33957031 2.0371875 15.36664063 3.26171875 15.39453125 C4.17695313 15.42933594 5.0921875 15.46414062 6.03515625 15.5 C5.15731077 20.60514022 3.6598924 23.41644656 -0.48046875 26.703125 C-7.41547124 30.98473523 -16.47128545 30.64017248 -24.2421875 29.02734375 C-29.37366716 27.08413036 -34.56531431 23.38452632 -36.98828125 18.390625 C-38.22339442 14.17670948 -38.22922967 11.20814647 -36.40234375 7.1875 C-33.26905372 1.94106087 -29.21176356 -0.9774612 -23.39453125 -2.953125 C-15.06961837 -4.8268996 -7.43520136 -4.25559492 0 0 Z " fill="#DADADA" transform="translate(415.96484375,229.5)"/>
<path d="M0 0 C1.31419922 -0.01224609 2.62839844 -0.02449219 3.98242188 -0.03710938 C5.23474609 -0.03904297 6.48707031 -0.04097656 7.77734375 -0.04296875 C8.93355225 -0.04707764 10.08976074 -0.05118652 11.28100586 -0.05541992 C14.0625 0.1875 14.0625 0.1875 16.0625 2.1875 C16.3125 5.1875 16.3125 5.1875 16.0625 8.1875 C14.0625 10.1875 14.0625 10.1875 10.3671875 10.3828125 C8.89049892 10.369509 7.41387642 10.34564835 5.9375 10.3125 C5.18339844 10.30347656 4.42929687 10.29445313 3.65234375 10.28515625 C1.78892746 10.2615687 -0.07432593 10.22569719 -1.9375 10.1875 C-1.9375 10.8475 -1.9375 11.5075 -1.9375 12.1875 C-0.93847656 12.17589844 0.06054688 12.16429687 1.08984375 12.15234375 C2.38019531 12.14332031 3.67054688 12.13429688 5 12.125 C6.28777344 12.11339844 7.57554687 12.10179687 8.90234375 12.08984375 C12.0625 12.1875 12.0625 12.1875 13.0625 13.1875 C13.1875 16.6875 13.1875 16.6875 13.0625 20.1875 C12.0625 21.1875 12.0625 21.1875 8.90234375 21.28515625 C7.61457031 21.27355469 6.32679688 21.26195313 5 21.25 C3.70964844 21.24097656 2.41929687 21.23195313 1.08984375 21.22265625 C0.09082031 21.21105469 -0.90820312 21.19945313 -1.9375 21.1875 C-1.9375 22.1775 -1.9375 23.1675 -1.9375 24.1875 C-0.11412109 24.17009766 -0.11412109 24.17009766 1.74609375 24.15234375 C3.33072764 24.14296722 4.91536318 24.13386687 6.5 24.125 C7.30244141 24.11662109 8.10488281 24.10824219 8.93164062 24.09960938 C10.97545221 24.0909857 13.01933902 24.1352185 15.0625 24.1875 C16.0625 25.1875 16.0625 25.1875 16.1875 28.6875 C16.0625 32.1875 16.0625 32.1875 15.0625 33.1875 C12.84394736 33.27533542 10.62261504 33.29444609 8.40234375 33.28515625 C7.40564415 33.28303383 7.40564415 33.28303383 6.3888092 33.28086853 C4.25916101 33.27525518 2.12961661 33.26270054 0 33.25 C-1.44075369 33.24498671 -2.88150903 33.24042351 -4.32226562 33.23632812 C-7.86071102 33.22528145 -11.39909539 33.20800792 -14.9375 33.1875 C-14.96215392 28.64852295 -14.98033789 24.10958457 -14.99243164 19.57055664 C-14.9974714 18.02530234 -15.0043032 16.48005284 -15.01293945 14.93481445 C-15.02502076 12.71824971 -15.03073173 10.50174782 -15.03515625 8.28515625 C-15.04031754 7.5903566 -15.04547882 6.89555695 -15.05079651 6.17970276 C-15.05099277 4.5152067 -14.99939129 2.85084501 -14.9375 1.1875 C-12.18198489 -1.56801511 -3.71775429 0.00181797 0 0 Z " fill="#D8D8D8" transform="translate(360.9375,4.8125)"/>
<path d="M0 0 C1.31419922 -0.01224609 2.62839844 -0.02449219 3.98242188 -0.03710938 C5.23474609 -0.03904297 6.48707031 -0.04097656 7.77734375 -0.04296875 C8.93355225 -0.04707764 10.08976074 -0.05118652 11.28100586 -0.05541992 C14.0625 0.1875 14.0625 0.1875 16.0625 2.1875 C16.3125 5.1875 16.3125 5.1875 16.0625 8.1875 C14.0625 10.1875 14.0625 10.1875 10.3671875 10.3828125 C8.89049892 10.369509 7.41387642 10.34564835 5.9375 10.3125 C5.18339844 10.30347656 4.42929687 10.29445312 3.65234375 10.28515625 C1.78892746 10.2615687 -0.07432593 10.22569719 -1.9375 10.1875 C-1.9375 10.8475 -1.9375 11.5075 -1.9375 12.1875 C2.6825 12.1875 7.3025 12.1875 12.0625 12.1875 C13.42873674 14.91997348 13.190926 17.16948902 13.0625 20.1875 C12.0625 21.1875 12.0625 21.1875 8.90234375 21.28515625 C7.61457031 21.27355469 6.32679688 21.26195312 5 21.25 C3.70964844 21.24097656 2.41929687 21.23195312 1.08984375 21.22265625 C0.09082031 21.21105469 -0.90820312 21.19945312 -1.9375 21.1875 C-1.9375 22.1775 -1.9375 23.1675 -1.9375 24.1875 C-0.11412109 24.17009766 -0.11412109 24.17009766 1.74609375 24.15234375 C3.33072764 24.14296722 4.91536318 24.13386687 6.5 24.125 C7.30244141 24.11662109 8.10488281 24.10824219 8.93164062 24.09960938 C10.97545221 24.0909857 13.01933902 24.1352185 15.0625 24.1875 C16.0625 25.1875 16.0625 25.1875 16.1875 28.6875 C16.0625 32.1875 16.0625 32.1875 15.0625 33.1875 C12.84394736 33.27533542 10.62261504 33.29444609 8.40234375 33.28515625 C7.40564415 33.28303383 7.40564415 33.28303383 6.3888092 33.28086853 C4.25916101 33.27525518 2.12961661 33.26270054 0 33.25 C-1.44075369 33.24498671 -2.88150903 33.24042351 -4.32226562 33.23632812 C-7.86071102 33.22528145 -11.39909539 33.20800792 -14.9375 33.1875 C-14.96215392 28.64852295 -14.98033789 24.10958457 -14.99243164 19.57055664 C-14.9974714 18.02530234 -15.0043032 16.48005284 -15.01293945 14.93481445 C-15.02502076 12.71824971 -15.03073173 10.50174782 -15.03515625 8.28515625 C-15.04031754 7.5903566 -15.04547882 6.89555695 -15.05079651 6.17970276 C-15.05099277 4.5152067 -14.99939129 2.85084501 -14.9375 1.1875 C-12.18198489 -1.56801511 -3.71775429 0.00181797 0 0 Z " fill="#D8D8D8" transform="translate(692.9375,225.8125)"/>
<path d="M0 0 C1.58361328 0.13921875 1.58361328 0.13921875 3.19921875 0.28125 C4.26785156 0.3534375 5.33648437 0.425625 6.4375 0.5 C7.64986328 0.63921875 7.64986328 0.63921875 8.88671875 0.78125 C23.88671875 28.85548581 23.88671875 28.85548581 23.88671875 33.78125 C19.26671875 33.78125 14.64671875 33.78125 9.88671875 33.78125 C9.55671875 32.46125 9.22671875 31.14125 8.88671875 29.78125 C6.92754216 29.8681248 4.96930004 29.97629512 3.01171875 30.09375 C1.92117188 30.15175781 0.830625 30.20976562 -0.29296875 30.26953125 C-1.22367187 30.43839844 -2.154375 30.60726562 -3.11328125 30.78125 C-3.77328125 31.77125 -4.43328125 32.76125 -5.11328125 33.78125 C-8.15234375 34.07421875 -8.15234375 34.07421875 -11.73828125 33.96875 C-12.92679687 33.94167969 -14.1153125 33.91460937 -15.33984375 33.88671875 C-16.25507813 33.85191406 -17.1703125 33.81710937 -18.11328125 33.78125 C-18.44328125 33.12125 -18.77328125 32.46125 -19.11328125 31.78125 C-18.29638672 29.56982422 -18.29638672 29.56982422 -16.98046875 26.8359375 C-16.50351562 25.84078125 -16.0265625 24.845625 -15.53515625 23.8203125 C-15.0246875 22.77617187 -14.51421875 21.73203125 -13.98828125 20.65625 C-13.25738281 19.12484375 -13.25738281 19.12484375 -12.51171875 17.5625 C-11.08613952 14.61276425 -9.61526643 11.69273547 -8.11328125 8.78125 C-7.69699463 7.95334961 -7.28070801 7.12544922 -6.85180664 6.27246094 C-3.94666178 0.99037937 -3.94666178 0.99037937 0 0 Z M1.88671875 16.78125 C1.55671875 18.10125 1.22671875 19.42125 0.88671875 20.78125 C1.87671875 20.78125 2.86671875 20.78125 3.88671875 20.78125 C3.55671875 19.46125 3.22671875 18.14125 2.88671875 16.78125 C2.55671875 16.78125 2.22671875 16.78125 1.88671875 16.78125 Z " fill="#DDDDDD" transform="translate(452.11328125,225.21875)"/>
<path d="M0 0 C8.63015938 0.00401552 16.24688053 0.05733881 23.125 5.8125 C26.05263222 9.49565021 26.51566503 11.53708371 26.0625 16.25 C23.4464449 21.19143742 20.62416504 24.13888227 15.234375 25.8203125 C12.7122942 26.31928532 10.3817186 26.34630551 7.8125 26.3125 C6.92046875 26.30347656 6.0284375 26.29445312 5.109375 26.28515625 C4.43390625 26.27355469 3.7584375 26.26195312 3.0625 26.25 C3.0625 28.56 3.0625 30.87 3.0625 33.25 C-1.2275 33.25 -5.5175 33.25 -9.9375 33.25 C-9.96215392 28.71102295 -9.98033789 24.17208457 -9.99243164 19.63305664 C-9.9974714 18.08780234 -10.0043032 16.54255284 -10.01293945 14.99731445 C-10.02502076 12.78074971 -10.03073173 10.56424782 -10.03515625 8.34765625 C-10.04031754 7.6528566 -10.04547882 6.95805695 -10.05079651 6.24220276 C-10.05099277 4.5777067 -9.99939129 2.91334501 -9.9375 1.25 C-7.77750267 -0.90999733 -2.98732523 0.0098175 0 0 Z M3.0625 10.25 C3.0625 12.56 3.0625 14.87 3.0625 17.25 C5.7025 16.92 8.3425 16.59 11.0625 16.25 C11.7439823 14.35820797 11.7439823 14.35820797 12.0625 12.25 C10.10616025 9.83878141 10.10616025 9.83878141 6.4375 10.125 C4.766875 10.186875 4.766875 10.186875 3.0625 10.25 Z " fill="#DEDEDE" transform="translate(496.9375,225.75)"/>
<path d="M0 0 C1.87655273 -0.00193359 1.87655273 -0.00193359 3.79101562 -0.00390625 C5.10908203 -0.00003906 6.42714844 0.00382813 7.78515625 0.0078125 C9.75645508 0.00201172 9.75645508 0.00201172 11.76757812 -0.00390625 C13.01990234 -0.00261719 14.27222656 -0.00132812 15.5625 0 C17.29681274 0.00169189 17.29681274 0.00169189 19.06616211 0.00341797 C21.84765625 0.1328125 21.84765625 0.1328125 23.84765625 1.1328125 C23.9453125 7.28515625 23.9453125 7.28515625 23.84765625 9.1328125 C22.84765625 10.1328125 22.84765625 10.1328125 19.25 10.23046875 C17.76168758 10.2237947 16.27339193 10.21183433 14.78515625 10.1953125 C13.64723633 10.18854492 13.64723633 10.18854492 12.48632812 10.18164062 C10.60673754 10.1698193 8.72718726 10.15188328 6.84765625 10.1328125 C6.84765625 10.7928125 6.84765625 11.4528125 6.84765625 12.1328125 C8.23791016 12.11541016 8.23791016 12.11541016 9.65625 12.09765625 C10.85378906 12.08863281 12.05132813 12.07960937 13.28515625 12.0703125 C14.48011719 12.05871094 15.67507813 12.04710937 16.90625 12.03515625 C19.84765625 12.1328125 19.84765625 12.1328125 20.84765625 13.1328125 C20.97265625 16.6328125 20.97265625 16.6328125 20.84765625 20.1328125 C19.84765625 21.1328125 19.84765625 21.1328125 16.90625 21.23046875 C15.71128906 21.21886719 14.51632812 21.20726562 13.28515625 21.1953125 C11.48884766 21.18177734 11.48884766 21.18177734 9.65625 21.16796875 C8.72941406 21.15636719 7.80257812 21.14476562 6.84765625 21.1328125 C6.85925781 21.91527344 6.87085938 22.69773438 6.8828125 23.50390625 C6.89183594 24.51582031 6.90085937 25.52773437 6.91015625 26.5703125 C6.92175781 27.57964844 6.93335938 28.58898437 6.9453125 29.62890625 C6.84765625 32.1328125 6.84765625 32.1328125 5.84765625 33.1328125 C3.84966053 33.23155066 1.84808467 33.26253049 -0.15234375 33.2578125 C-1.24546875 33.26039063 -2.33859375 33.26296875 -3.46484375 33.265625 C-6.15234375 33.1328125 -6.15234375 33.1328125 -7.15234375 32.1328125 C-7.25255305 29.85333458 -7.28315678 27.57074115 -7.28515625 25.2890625 C-7.28611298 24.60477173 -7.2870697 23.92048096 -7.28805542 23.2154541 C-7.28873705 21.76619373 -7.28688398 20.31693032 -7.28271484 18.86767578 C-7.27736627 16.64218322 -7.28266035 14.41689249 -7.2890625 12.19140625 C-7.28840172 10.78645789 -7.28712055 9.38150965 -7.28515625 7.9765625 C-7.28402832 6.68943359 -7.28290039 5.40230469 -7.28173828 4.07617188 C-7.05211468 -1.14711517 -4.66823898 0.00455851 0 0 Z " fill="#D8D8D8" transform="translate(872.15234375,225.8671875)"/>
<path d="M0 0 C1.31419922 -0.01224609 2.62839844 -0.02449219 3.98242188 -0.03710938 C5.23474609 -0.03904297 6.48707031 -0.04097656 7.77734375 -0.04296875 C8.93355225 -0.04707764 10.08976074 -0.05118652 11.28100586 -0.05541992 C14.0625 0.1875 14.0625 0.1875 16.0625 2.1875 C16.1875 5.8125 16.1875 5.8125 16.0625 9.1875 C12.87425432 10.78162284 9.43353338 10.28924735 5.9375 10.25 C5.18339844 10.24548828 4.42929687 10.24097656 3.65234375 10.23632812 C1.78902873 10.22453499 -0.07424555 10.20659942 -1.9375 10.1875 C-1.9375 10.8475 -1.9375 11.5075 -1.9375 12.1875 C-0.93847656 12.17589844 0.06054688 12.16429687 1.08984375 12.15234375 C2.38019531 12.14332031 3.67054688 12.13429687 5 12.125 C6.28777344 12.11339844 7.57554687 12.10179687 8.90234375 12.08984375 C12.0625 12.1875 12.0625 12.1875 13.0625 13.1875 C13.1875 16.6875 13.1875 16.6875 13.0625 20.1875 C11.18425109 22.06574891 8.02314724 21.57852397 5.5 21.75 C3.70369141 21.87568359 3.70369141 21.87568359 1.87109375 22.00390625 C0.94425781 22.06449219 0.01742187 22.12507813 -0.9375 22.1875 C-0.92589844 22.81398437 -0.91429687 23.44046875 -0.90234375 24.0859375 C-0.88880859 25.31183594 -0.88880859 25.31183594 -0.875 26.5625 C-0.86339844 27.37460938 -0.85179687 28.18671875 -0.83984375 29.0234375 C-0.9375 31.1875 -0.9375 31.1875 -1.9375 33.1875 C-6.2275 33.1875 -10.5175 33.1875 -14.9375 33.1875 C-14.96215392 28.64852295 -14.98033789 24.10958457 -14.99243164 19.57055664 C-14.9974714 18.02530234 -15.0043032 16.48005284 -15.01293945 14.93481445 C-15.02502076 12.71824971 -15.03073173 10.50174782 -15.03515625 8.28515625 C-15.04031754 7.5903566 -15.04547882 6.89555695 -15.05079651 6.17970276 C-15.05099277 4.5152067 -14.99939129 2.85084501 -14.9375 1.1875 C-12.18198489 -1.56801511 -3.71775429 0.00181797 0 0 Z " fill="#D8D8D8" transform="translate(837.9375,225.8125)"/>
<path d="M0 0 C1.21429687 -0.01417969 2.42859375 -0.02835937 3.6796875 -0.04296875 C6.96844421 0.17702745 9.17865948 0.77034382 12.125 2.1875 C11.795 4.4975 11.465 6.8075 11.125 9.1875 C7.38318125 10.06792794 3.96083759 10.23000236 0.125 10.1875 C0.88425781 10.63480469 1.64351562 11.08210937 2.42578125 11.54296875 C3.41964844 12.14753906 4.41351562 12.75210937 5.4375 13.375 C6.42363281 13.96667969 7.40976562 14.55835938 8.42578125 15.16796875 C11.28367237 17.30621724 12.62489584 18.97225968 14.125 22.1875 C14.125 26.01474477 13.65822624 27.60579864 11.0625 30.4375 C3.97514481 34.65975416 -2.92893816 34.75188092 -10.875 33.1875 C-14.0625 31.625 -14.0625 31.625 -15.875 30.1875 C-14.885 26.7225 -14.885 26.7225 -13.875 23.1875 C-9.915 23.1875 -5.955 23.1875 -1.875 23.1875 C-3.463125 22.28 -5.05125 21.3725 -6.6875 20.4375 C-10.22895635 18.41381065 -12.78101659 16.73846216 -14.875 13.1875 C-15.52063369 10.43279625 -15.49313415 7.94925533 -14.875 5.1875 C-10.38184259 0.45146922 -6.30018551 0.03329908 0 0 Z " fill="#D7D7D7" transform="translate(997.875,4.8125)"/>
<path d="M0 0 C1.21429687 -0.01417969 2.42859375 -0.02835937 3.6796875 -0.04296875 C6.96844421 0.17702745 9.17865948 0.77034382 12.125 2.1875 C11.795 4.4975 11.465 6.8075 11.125 9.1875 C7.38318125 10.06792794 3.96083759 10.23000236 0.125 10.1875 C0.88425781 10.61160156 1.64351562 11.03570312 2.42578125 11.47265625 C11.56367167 16.86531532 11.56367167 16.86531532 13.4375 20.8125 C14.20466999 24.57860721 14.17995981 25.97104117 12.125 29.1875 C8.71867298 32.86633318 3.9344748 33.64811965 -0.875 34.1875 C-6.16270427 34.12473793 -11.09087345 33.57956328 -15.875 31.1875 C-15 25.4375 -15 25.4375 -13.875 23.1875 C-9.915 23.1875 -5.955 23.1875 -1.875 23.1875 C-3.4425 22.32125 -5.01 21.455 -6.625 20.5625 C-11.08137892 17.86970933 -13.77677867 15.98343447 -15.875 11.1875 C-15.9375 8.0625 -15.9375 8.0625 -14.875 5.1875 C-10.15800469 0.59463615 -6.42012414 0.033933 0 0 Z " fill="#D7D7D7" transform="translate(556.875,4.8125)"/>
<path d="M0 0 C1.21429687 -0.01417969 2.42859375 -0.02835938 3.6796875 -0.04296875 C6.96844421 0.17702745 9.17865948 0.77034382 12.125 2.1875 C11.795 4.4975 11.465 6.8075 11.125 9.1875 C7.39062152 10.06617729 3.95725427 10.27662219 0.125 10.1875 C0.81207031 10.58582031 1.49914062 10.98414063 2.20703125 11.39453125 C3.10808594 11.92433594 4.00914062 12.45414063 4.9375 13 C5.83082031 13.52207031 6.72414063 14.04414063 7.64453125 14.58203125 C11.08023389 16.80576949 12.79701049 18.10982019 14 22.0625 C14.15246169 25.87404214 13.51094144 27.24483889 11.125 30.1875 C6.76403421 33.8877134 1.65569811 34.19569363 -3.875 34.1875 C-8.84924296 33.62971239 -12.48619584 33.05434863 -15.875 29.1875 C-15.215 27.2075 -14.555 25.2275 -13.875 23.1875 C-9.915 23.1875 -5.955 23.1875 -1.875 23.1875 C-2.64585937 22.71699219 -3.41671875 22.24648437 -4.2109375 21.76171875 C-5.21382812 21.13910156 -6.21671875 20.51648438 -7.25 19.875 C-8.24773438 19.26011719 -9.24546875 18.64523438 -10.2734375 18.01171875 C-12.875 16.1875 -12.875 16.1875 -14.875 13.1875 C-15.4480659 8.02990688 -15.4480659 8.02990688 -14.875 5.1875 C-10.38184259 0.45146922 -6.30018551 0.03329908 0 0 Z " fill="#DCDBDB" transform="translate(921.875,225.8125)"/>
<path d="M0 0 C1.12276085 -0.0049926 1.12276085 -0.0049926 2.26820374 -0.01008606 C3.85449609 -0.01515818 5.44079915 -0.0174943 7.02709961 -0.01733398 C9.45899994 -0.01951898 11.89044574 -0.03766706 14.32226562 -0.05664062 C15.86067553 -0.05957474 17.39908759 -0.06155942 18.9375 -0.0625 C20.03287331 -0.07327827 20.03287331 -0.07327827 21.15037537 -0.08427429 C26.30633318 -0.06085432 26.30633318 -0.06085432 28.53515625 2.16796875 C28.78515625 5.16796875 28.78515625 5.16796875 28.53515625 8.16796875 C27.87515625 8.82796875 27.21515625 9.48796875 26.53515625 10.16796875 C23.23515625 10.16796875 19.93515625 10.16796875 16.53515625 10.16796875 C16.53515625 17.75796875 16.53515625 25.34796875 16.53515625 33.16796875 C12.24515625 33.16796875 7.95515625 33.16796875 3.53515625 33.16796875 C2.30878055 30.71521734 2.42100311 29.11739065 2.4375 26.37890625 C2.44072266 25.43789062 2.44394531 24.496875 2.44726562 23.52734375 C2.45564453 22.5425 2.46402344 21.55765625 2.47265625 20.54296875 C2.47716797 19.55039063 2.48167969 18.5578125 2.48632812 17.53515625 C2.4981348 15.07936715 2.51460225 12.62369771 2.53515625 10.16796875 C1.82488281 10.17957031 1.11460937 10.19117188 0.3828125 10.203125 C-0.53628906 10.21214844 -1.45539062 10.22117188 -2.40234375 10.23046875 C-3.31886719 10.24207031 -4.23539063 10.25367188 -5.1796875 10.265625 C-7.46484375 10.16796875 -7.46484375 10.16796875 -8.46484375 9.16796875 C-8.59765625 7.35546875 -8.59765625 7.35546875 -8.58984375 5.16796875 C-8.59242188 4.44609375 -8.595 3.72421875 -8.59765625 2.98046875 C-8.27248316 -1.45718751 -3.42438181 0.00520398 0 0 Z " fill="#E3E3E3" transform="translate(542.46484375,225.83203125)"/>
<path d="M0 0 C0.72489624 -0.0033284 1.44979248 -0.0066568 2.19665527 -0.01008606 C3.72989263 -0.0151505 5.26314101 -0.01749453 6.79638672 -0.01733398 C9.14699343 -0.01952263 11.49713249 -0.03768876 13.84765625 -0.05664062 C15.33593589 -0.05957417 16.82421777 -0.06155923 18.3125 -0.0625 C19.01773804 -0.06968552 19.72297607 -0.07687103 20.44958496 -0.08427429 C25.42742152 -0.06085973 25.42742152 -0.06085973 27.65625 2.16796875 C27.90625 5.16796875 27.90625 5.16796875 27.65625 8.16796875 C26.99625 8.82796875 26.33625 9.48796875 25.65625 10.16796875 C22.35625 10.16796875 19.05625 10.16796875 15.65625 10.16796875 C15.65625 17.75796875 15.65625 25.34796875 15.65625 33.16796875 C5.59765625 33.265625 5.59765625 33.265625 2.65625 33.16796875 C1.65625 32.16796875 1.65625 32.16796875 1.54272461 30.03491211 C1.54796143 29.11846924 1.55319824 28.20202637 1.55859375 27.2578125 C1.56181641 26.26845703 1.56503906 25.27910156 1.56835938 24.25976562 C1.57673828 23.21884766 1.58511719 22.17792969 1.59375 21.10546875 C1.59826172 20.06068359 1.60277344 19.01589844 1.60742188 17.93945312 C1.61925087 15.34890215 1.63573311 12.75846316 1.65625 10.16796875 C0.94597656 10.17957031 0.23570312 10.19117188 -0.49609375 10.203125 C-1.41519531 10.21214844 -2.33429687 10.22117187 -3.28125 10.23046875 C-4.19777344 10.24207031 -5.11429688 10.25367188 -6.05859375 10.265625 C-8.34375 10.16796875 -8.34375 10.16796875 -9.34375 9.16796875 C-9.48490161 6.49738024 -9.38622107 3.84364637 -9.34375 1.16796875 C-6.35285916 -0.32747667 -3.28007814 0.00517577 0 0 Z " fill="#E3E3E3" transform="translate(777.34375,4.83203125)"/>
<path d="M0 0 C0.73541016 0.00202423 1.47082031 0.00404846 2.22851562 0.00613403 C2.97939453 0.00517731 3.73027344 0.00422058 4.50390625 0.00323486 C6.09440189 0.00255315 7.6849003 0.00440682 9.27539062 0.00857544 C11.71816217 0.01392386 14.16074984 0.00863019 16.60351562 0.00222778 C18.1451827 0.00288857 19.68684966 0.00416973 21.22851562 0.00613403 C21.96392578 0.0041098 22.69933594 0.00208557 23.45703125 0 C28.61356402 0.02399493 28.61356402 0.02399493 29.72851562 1.13894653 C29.86132812 2.95144653 29.86132812 2.95144653 29.85351562 5.13894653 C29.85738281 6.22175903 29.85738281 6.22175903 29.86132812 7.32644653 C29.72851562 9.13894653 29.72851562 9.13894653 28.72851562 10.13894653 C27.04242597 10.21100165 25.35350903 10.22280721 23.66601562 10.20144653 C22.74691406 10.1924231 21.8278125 10.18339966 20.88085938 10.17410278 C20.17058594 10.16250122 19.4603125 10.15089966 18.72851562 10.13894653 C18.73637085 11.13075928 18.73637085 11.13075928 18.74438477 12.14260864 C18.76509218 15.12054505 18.77815575 18.09846635 18.79101562 21.07644653 C18.79939453 22.1173645 18.80777344 23.15828247 18.81640625 24.23074341 C18.82124023 25.71477661 18.82124023 25.71477661 18.82617188 27.22879028 C18.8340271 28.60345459 18.8340271 28.60345459 18.84204102 30.00588989 C18.72851562 32.13894653 18.72851562 32.13894653 17.72851562 33.13894653 C15.73051991 33.23768469 13.72894404 33.26866452 11.72851562 33.26394653 C10.63539063 33.26652466 9.54226562 33.26910278 8.41601562 33.27175903 C5.72851562 33.13894653 5.72851562 33.13894653 4.72851562 32.13894653 C4.6415122 30.50421771 4.621505 28.86580598 4.63085938 27.22879028 C4.63408203 26.23943481 4.63730469 25.25007935 4.640625 24.23074341 C4.64900391 23.18982544 4.65738281 22.14890747 4.66601562 21.07644653 C4.67052734 20.03166138 4.67503906 18.98687622 4.6796875 17.91043091 C4.6915165 15.31987993 4.70799873 12.72944095 4.72851562 10.13894653 C4.01824219 10.1505481 3.30796875 10.16214966 2.57617188 10.17410278 C1.65707031 10.18312622 0.73796875 10.19214966 -0.20898438 10.20144653 C-1.12550781 10.2130481 -2.04203125 10.22464966 -2.98632812 10.23660278 C-5.27148438 10.13894653 -5.27148438 10.13894653 -6.27148438 9.13894653 C-6.40429688 7.32644653 -6.40429688 7.32644653 -6.39648438 5.13894653 C-6.3990625 4.41707153 -6.40164062 3.69519653 -6.40429688 2.95144653 C-6.11658277 -0.97500473 -3.28254504 0.01527469 0 0 Z " fill="#DEDEDE" transform="translate(152.271484375,225.86105346679688)"/>
<path d="M0 0 C1.43352212 0.00015908 2.86704998 0.00585132 4.30053711 0.01586914 C5.43041298 0.01799156 5.43041298 0.01799156 6.58311462 0.02015686 C8.99807646 0.02577163 11.41294687 0.03832656 13.82788086 0.05102539 C15.46134307 0.05603849 17.09480672 0.06060173 18.72827148 0.06469727 C22.74067671 0.07574585 26.75301326 0.09302033 30.76538086 0.11352539 C30.76538086 3.41352539 30.76538086 6.71352539 30.76538086 10.11352539 C27.46538086 10.11352539 24.16538086 10.11352539 20.76538086 10.11352539 C20.76538086 17.70352539 20.76538086 25.29352539 20.76538086 33.11352539 C16.47538086 33.11352539 12.18538086 33.11352539 7.76538086 33.11352539 C6.53900516 30.66077398 6.65122772 29.06294729 6.66772461 26.32446289 C6.67094727 25.38344727 6.67416992 24.44243164 6.67749023 23.47290039 C6.68586914 22.48805664 6.69424805 21.50321289 6.70288086 20.48852539 C6.70739258 19.49594727 6.7119043 18.50336914 6.71655273 17.48071289 C6.72835941 15.02492379 6.74482686 12.56925435 6.76538086 10.11352539 C6.05510742 10.12512695 5.34483398 10.13672852 4.61303711 10.14868164 C3.69393555 10.15770508 2.77483398 10.16672852 1.82788086 10.17602539 C0.91135742 10.18762695 -0.00516602 10.19922852 -0.94946289 10.21118164 C-3.23461914 10.11352539 -3.23461914 10.11352539 -4.23461914 9.11352539 C-4.36743164 7.30102539 -4.36743164 7.30102539 -4.35961914 5.11352539 C-4.36219727 4.39165039 -4.36477539 3.66977539 -4.36743164 2.92602539 C-4.13000412 -0.3141619 -3.322601 0.11661329 0 0 Z " fill="#D8D8D8" transform="translate(993.234619140625,225.886474609375)"/>
<path d="M0 0 C0.886875 -0.00257813 1.77375 -0.00515625 2.6875 -0.0078125 C5 0.125 5 0.125 7 1.125 C7 8.715 7 16.305 7 24.125 C12.87883003 24.08542231 12.87883003 24.08542231 18.75756836 24.03491211 C19.48596924 24.03241455 20.21437012 24.02991699 20.96484375 24.02734375 C21.7137085 24.02210693 22.46257324 24.01687012 23.23413086 24.01147461 C25 24.125 25 24.125 26 25.125 C26.125 28.625 26.125 28.625 26 32.125 C24.09150052 34.03349948 20.68521226 33.25559633 18.15625 33.2578125 C17.47195923 33.25876923 16.78766846 33.25972595 16.0826416 33.26071167 C14.63338123 33.2613933 13.18411782 33.25954023 11.73486328 33.25537109 C9.50937072 33.25002252 7.28407999 33.2553166 5.05859375 33.26171875 C3.65364539 33.26105797 2.24869715 33.2597768 0.84375 33.2578125 C-0.44337891 33.25668457 -1.73050781 33.25555664 -3.05664062 33.25439453 C-6 33.125 -6 33.125 -7 32.125 C-7.08790975 29.83348583 -7.10694038 27.53927476 -7.09765625 25.24609375 C-7.0962413 24.5594313 -7.09482635 23.87276886 -7.09336853 23.16529846 C-7.08775479 20.96432199 -7.07520007 18.76344591 -7.0625 16.5625 C-7.05748676 15.07356917 -7.05292355 13.58463676 -7.04882812 12.09570312 C-7.03778093 8.43876925 -7.02050713 4.78189442 -7 1.125 C-4.51245214 -0.11877393 -2.77344699 -0.00806235 0 0 Z " fill="#D0D0D0" transform="translate(663,4.875)"/>
<path d="M0 0 C0.886875 -0.02578125 1.77375 -0.0515625 2.6875 -0.078125 C3.450625 0.03015625 4.21375 0.1384375 5 0.25 C7.37612352 3.81418529 7.24563712 5.372225 7.23046875 9.59765625 C7.22853516 10.84224609 7.22660156 12.08683594 7.22460938 13.36914062 C7.21236328 14.67044922 7.20011719 15.97175781 7.1875 17.3125 C7.18685547 18.61767578 7.18621094 19.92285156 7.18554688 21.26757812 C7.14028159 30.96943681 7.14028159 30.96943681 6 33.25 C1.71 33.25 -2.58 33.25 -7 33.25 C-7 22.69 -7 12.13 -7 1.25 C-4.53183586 0.01591793 -2.75338799 0.04802421 0 0 Z " fill="#CBCBCB" transform="translate(832,4.75)"/>
<path d="M0 0 C0.66 0.33 1.32 0.66 2 1 C1.96519531 1.89525391 1.96519531 1.89525391 1.9296875 2.80859375 C1.71340334 13.20568251 2.78711285 23.83268066 5 34 C1.54073281 35.7296336 -2.21097464 35.34965838 -6 35 C-9.5 33.8125 -9.5 33.8125 -12 32 C-13.15343705 28.83307662 -13.09363718 27.28302789 -12.02783203 24.06152344 C-11.52622559 23.00481445 -11.02461914 21.94810547 -10.5078125 20.859375 C-9.96769531 19.70695312 -9.42757813 18.55453125 -8.87109375 17.3671875 C-8.28916346 16.1614096 -7.70713101 14.95568101 -7.125 13.75 C-6.54957825 12.52921215 -5.9753462 11.30786277 -5.40234375 10.0859375 C-1.19809435 1.19809435 -1.19809435 1.19809435 0 0 Z " fill="#F1F1F1" transform="translate(14,168)"/>
<path d="M0 0 C0.33 0 0.66 0 1 0 C1 10.56 1 21.12 1 32 C9.91 32 18.82 32 28 32 C28 29.69 28 27.38 28 25 C22.72 25 17.44 25 12 25 C11.67 23.35 11.34 21.7 11 20 C15.62 20 20.24 20 25 20 C25 17.69 25 15.38 25 13 C20.38 13 15.76 13 11 13 C11.33 11.35 11.66 9.7 12 8 C17.61 8 23.22 8 29 8 C28.67 5.36 28.34 2.72 28 0 C28.66 0.33 29.32 0.66 30 1 C30.09765625 7.15234375 30.09765625 7.15234375 30 9 C29 10 29 10 25.40234375 10.09765625 C23.91403133 10.0909822 22.42573568 10.07902183 20.9375 10.0625 C19.79958008 10.05573242 19.79958008 10.05573242 18.63867188 10.04882812 C16.75908129 10.0370068 14.87953101 10.01907078 13 10 C13 10.66 13 11.32 13 12 C14.39025391 11.98259766 14.39025391 11.98259766 15.80859375 11.96484375 C17.00613281 11.95582031 18.20367188 11.94679687 19.4375 11.9375 C20.63246094 11.92589844 21.82742188 11.91429687 23.05859375 11.90234375 C26 12 26 12 27 13 C27.14115161 15.67058851 27.04247107 18.32432238 27 21 C22.38 21 17.76 21 13 21 C13 21.99 13 22.98 13 24 C18.61 24 24.22 24 30 24 C30 26.64 30 29.28 30 32 C28.14285943 33.85714057 25.07492951 33.13048681 22.59375 33.1328125 C21.29308594 33.13410156 19.99242187 33.13539063 18.65234375 33.13671875 C17.97155762 33.13462402 17.29077148 33.1325293 16.58935547 33.13037109 C14.50871485 33.1250224 12.42829011 33.1303168 10.34765625 33.13671875 C8.39666016 33.13478516 8.39666016 33.13478516 6.40625 33.1328125 C5.20291016 33.13168457 3.99957031 33.13055664 2.75976562 33.12939453 C0 33 0 33 -1 32 C-1.1002093 29.72052208 -1.13081303 27.43792865 -1.1328125 25.15625 C-1.13376923 24.47195923 -1.13472595 23.78766846 -1.13571167 23.0826416 C-1.1363933 21.63338123 -1.13454023 20.18411782 -1.13037109 18.73486328 C-1.12502252 16.50937072 -1.1303166 14.28407999 -1.13671875 12.05859375 C-1.13605797 10.65364539 -1.1347768 9.24869715 -1.1328125 7.84375 C-1.13168457 6.55662109 -1.13055664 5.26949219 -1.12939453 3.94335938 C-1 1 -1 1 0 0 Z " fill="#999798" transform="translate(948,226)"/>
<path d="M0 0 C1.51400391 0.01740234 1.51400391 0.01740234 3.05859375 0.03515625 C4.07050781 0.04417969 5.08242188 0.05320313 6.125 0.0625 C7.29869141 0.07990234 7.29869141 0.07990234 8.49609375 0.09765625 C8.78071286 5.60029246 8.80544839 9.41891349 5.49609375 14.09765625 C2.80859375 14.97265625 2.80859375 14.97265625 0.49609375 15.09765625 C-0.50390625 12.09765625 -0.50390625 12.09765625 0.49609375 9.09765625 C-0.82390625 8.76765625 -2.14390625 8.43765625 -3.50390625 8.09765625 C-3.54632348 5.7647085 -3.54483562 3.43063058 -3.50390625 1.09765625 C-2.50390625 0.09765625 -2.50390625 0.09765625 0 0 Z " fill="#CECECE" transform="translate(334.50390625,249.90234375)"/>
<path d="M0 0 C3.63 0 7.26 0 11 0 C11.27288764 6.00352801 11.24013514 9.7347804 8 15 C6.35 15 4.7 15 3 15 C3 13.35 3 11.7 3 10 C2.01 9.67 1.02 9.34 0 9 C0 6.03 0 3.06 0 0 Z " fill="#D4D3D3" transform="translate(720,250)"/>
<path d="M0 0 C0.33 0 0.66 0 1 0 C1 2.64 1 5.28 1 8 C4.63 8 8.26 8 12 8 C12 15.92 12 23.84 12 32 C15.3 32 18.6 32 22 32 C22 32.33 22 32.66 22 33 C18.37 33 14.74 33 11 33 C9.7736243 30.54724859 9.88584686 28.9494219 9.90234375 26.2109375 C9.90556641 25.26992187 9.90878906 24.32890625 9.91210938 23.359375 C9.92048828 22.37453125 9.92886719 21.3896875 9.9375 20.375 C9.94201172 19.38242188 9.94652344 18.38984375 9.95117188 17.3671875 C9.96297855 14.9113984 9.979446 12.45572896 10 10 C9.28972656 10.01160156 8.57945312 10.02320313 7.84765625 10.03515625 C6.92855469 10.04417969 6.00945313 10.05320313 5.0625 10.0625 C4.14597656 10.07410156 3.22945312 10.08570313 2.28515625 10.09765625 C0 10 0 10 -1 9 C-1.1328125 7.1875 -1.1328125 7.1875 -1.125 5 C-1.12757813 4.278125 -1.13015625 3.55625 -1.1328125 2.8125 C-1 1 -1 1 0 0 Z " fill="#868586" transform="translate(535,226)"/>
<path d="M0 0 C0.66 0 1.32 0 2 0 C2 2.31 2 4.62 2 7 C5.63 7 9.26 7 13 7 C13 14.59 13 22.18 13 30 C12.34 30.33 11.68 30.66 11 31 C11 23.74 11 16.48 11 9 C7.7 9 4.4 9 1 9 C0 8 0 8 -0.09765625 6.15234375 C-0.06510417 4.1015625 -0.03255208 2.05078125 0 0 Z " fill="#848384" transform="translate(768,6)"/>
<path d="M0 0 C0.66 0 1.32 0 2 0 C2 5.28 2 10.56 2 16 C1.34 16 0.68 16 0 16 C-1.18224668 12.45325997 -0.89329634 10.02477005 -0.5625 6.3125 C-0.46066406 5.13300781 -0.35882812 3.95351562 -0.25390625 2.73828125 C-0.17011719 1.83464844 -0.08632813 0.93101562 0 0 Z " fill="#A09F9F" transform="translate(948,6)"/>
<path d="M0 0 C0.99 0.99 1.98 1.98 3 3 C2.67 3.66 2.34 4.32 2 5 C-1.96 5 -5.92 5 -10 5 C-9.67 4.34 -9.34 3.68 -9 3 C-6.93359375 2.5859375 -6.93359375 2.5859375 -4.4375 2.375 C-3.61121094 2.30023438 -2.78492188 2.22546875 -1.93359375 2.1484375 C-0.97646484 2.07496094 -0.97646484 2.07496094 0 2 C0 1.34 0 0.68 0 0 Z " fill="#989697" transform="translate(265,13)"/>
<path d="M0 0 C4.62 0 9.24 0 14 0 C14 0.66 14 1.32 14 2 C13.24074219 1.94199219 12.48148438 1.88398438 11.69921875 1.82421875 C8.72926554 1.68939597 5.95184921 1.62993041 3 2 C0.69512279 4.30317533 0.69512279 4.30317533 0 7 C-0.66 6.67 -1.32 6.34 -2 6 C-1.34 4.02 -0.68 2.04 0 0 Z " fill="#9E9E9E" transform="translate(908,249)"/>
<path d="M0 0 C0 0.66 0 1.32 0 2 C-0.763125 2.2475 -1.52625 2.495 -2.3125 2.75 C-5.26180029 4.12176758 -6.17431019 5.3918717 -8 8 C-8.66 8 -9.32 8 -10 8 C-9.62118922 5.25362183 -9.22167713 4.19950942 -7.125 2.3125 C-4.74458507 0.84224372 -2.82550095 0 0 0 Z " fill="#ADADAD" transform="translate(993,5)"/>
<path d="M0 0 C0.66 0.33 1.32 0.66 2 1 C0.576875 1.8971875 0.576875 1.8971875 -0.875 2.8125 C-4.13964197 4.81562526 -4.13964197 4.81562526 -6 8 C-6.66 8 -7.32 8 -8 8 C-7.62118922 5.25362183 -7.22167713 4.19950942 -5.125 2.3125 C-3 1 -3 1 0 0 Z " fill="#ACABAC" transform="translate(915,226)"/>
<path d="M0 0 C0 0.66 0 1.32 0 2 C-1.1446875 2.4021875 -1.1446875 2.4021875 -2.3125 2.8125 C-4.90496926 3.95800967 -6.08815544 4.99711522 -8 7 C-8.66 7 -9.32 7 -10 7 C-8.89184175 3.78634109 -8.01470446 3.0085776 -5 1.25 C-2 0 -2 0 0 0 Z " fill="#B7B7B7" transform="translate(552,5)"/>
</svg>
